<svg width="3031" height="146" viewBox="0 0 3031 146" fill="none" xmlns="http://www.w3.org/2000/svg">
<path d="M13.333 125.401C5.96924 125.401 -0.000487229 119.431 -0.000486907 112.067C-0.000486585 104.704 5.96924 98.734 13.333 98.734C20.6968 98.734 26.6663 104.704 26.6663 112.067C26.6663 119.431 20.6968 125.401 13.333 125.401ZM17.6116 111.506L17.2864 109.027C17.6936 108.974 18.1077 109.021 18.4922 109.166L17.6116 111.506ZM27.7856 115.334L27.4443 117.811C27.2603 117.785 27.0793 117.739 26.9053 117.674L27.7856 115.334ZM45.5664 117.784L47.3855 119.499C46.8311 120.087 46.0261 120.371 45.2251 120.26L45.5664 117.784ZM56.2158 106.487L54.3967 104.772C54.9006 104.237 55.6145 103.952 56.3481 103.99C57.0818 104.029 57.7612 104.389 58.2061 104.974L56.2158 106.487ZM63.2522 115.742L63.6384 118.212C62.7307 118.354 61.8181 117.987 61.2622 117.255L63.2522 115.742ZM73.4263 114.151L73.04 111.681C73.2649 111.646 73.4934 111.642 73.7192 111.669L73.4263 114.151ZM79.9871 114.926L80.3081 117.405C80.1042 117.431 79.8982 117.432 79.6941 117.408L79.9871 114.926ZM89.1155 113.743L88.7942 111.264C89.0005 111.237 89.209 111.236 89.4155 111.261L89.1155 113.743ZM97.7681 114.789L99.2688 116.789C98.7532 117.176 98.1079 117.349 97.4678 117.271L97.7681 114.789ZM128.67 91.5915L127.169 89.5922C128.12 88.8786 129.441 88.9329 130.33 89.7222L128.67 91.5915ZM131.238 93.8713L132.883 95.7535C131.935 96.5821 130.519 96.5766 129.578 95.7407L131.238 93.8713ZM135.802 89.8816L134.156 87.9994C134.67 87.5503 135.345 87.3307 136.025 87.3916C136.704 87.4525 137.33 87.7885 137.755 88.3218L135.802 89.8816ZM138.369 93.0972L140.021 94.9732C139.508 95.4253 138.832 95.6474 138.151 95.5877C137.469 95.5279 136.842 95.1916 136.415 94.6571L138.369 93.0972ZM140.841 90.9195L139.189 89.0435C140.194 88.1579 141.719 88.2223 142.646 89.1895L140.841 90.9195ZM152.061 102.625L154.066 104.119C153.626 104.708 152.95 105.075 152.216 105.12C151.482 105.166 150.765 104.886 150.256 104.355L152.061 102.625ZM158.146 94.4583L156.142 92.9645C156.586 92.3682 157.273 92.0007 158.015 91.9617C158.758 91.9228 159.479 92.2165 159.984 92.7631L158.146 94.4583ZM160.619 97.1379L162.693 98.5336C162.266 99.1681 161.572 99.5722 160.809 99.6306C160.047 99.689 159.3 99.3952 158.781 98.8332L160.619 97.1379ZM174.786 76.0837L172.712 74.688C173.218 73.9359 174.092 73.5167 174.995 73.5924C175.898 73.6681 176.69 74.2268 177.063 75.0525L174.786 76.0837ZM177.829 82.804L180.182 83.6467C179.839 84.6057 178.948 85.2605 177.93 85.3019C176.913 85.3434 175.971 84.7631 175.551 83.8351L177.829 82.804ZM182.964 68.4616L180.61 67.6189C180.928 66.7302 181.719 66.0965 182.656 65.9805C183.593 65.8645 184.515 66.286 185.041 67.0703L182.964 68.4616ZM186.006 73.0042L188.328 73.9323C187.983 74.7935 187.191 75.3933 186.268 75.4905C185.346 75.5876 184.446 75.1661 183.929 74.3955L186.006 73.0042ZM188.003 68.0107L185.682 67.0826C186.059 66.1386 186.97 65.5172 187.987 65.5108C189.004 65.5043 189.923 66.1141 190.312 67.0531L188.003 68.0107ZM196.656 88.8779L198.778 90.1984C198.283 90.9939 197.385 91.446 196.452 91.3695C195.518 91.2931 194.705 90.7009 194.346 89.8354L196.656 88.8779ZM205.784 74.2037L203.661 72.8832C203.821 72.6252 204.028 72.3986 204.269 72.2145L205.784 74.2037ZM210.823 70.3671L213.08 71.4416C212.909 71.8013 212.655 72.1149 212.337 72.3563L210.823 70.3671ZM213.39 64.9738L211.133 63.8993C211.715 62.6766 213.165 62.1395 214.403 62.6881L213.39 64.9738ZM217.384 66.7432L219.508 68.0619C218.85 69.1216 217.512 69.5342 216.371 69.0289L217.384 66.7432ZM219.951 62.6089L217.827 61.2902C218.325 60.4879 219.233 60.0348 220.174 60.1189C221.114 60.2029 221.927 60.8099 222.275 61.6878L219.951 62.6089ZM225.561 76.7642L227.712 78.038C227.226 78.8588 226.316 79.3314 225.365 79.2565C224.414 79.1815 223.589 78.5721 223.237 77.6853L225.561 76.7642ZM230.125 69.0571L227.974 67.7832C228.426 67.0196 229.249 66.553 230.137 66.5571C231.024 66.5612 231.843 67.0355 232.288 67.8033L230.125 69.0571ZM235.83 78.8994L237.184 81.0014C236.609 81.3713 235.908 81.4899 235.244 81.3297C234.58 81.1694 234.01 80.7443 233.667 80.1531L235.83 78.8994ZM240.204 76.0837L238.851 73.9816C239.503 73.5616 240.313 73.4683 241.044 73.7291C241.775 73.9898 242.343 74.575 242.582 75.3131L240.204 76.0837ZM243.247 85.4751L245.474 86.6106C245.015 87.5117 244.058 88.0472 243.049 87.9673C242.041 87.8874 241.18 87.2079 240.869 86.2457L243.247 85.4751ZM248.382 75.4031L246.155 74.2676C246.549 73.4942 247.316 72.9807 248.181 72.9112C249.047 72.8416 249.886 73.226 250.399 73.9266L248.382 75.4031ZM252.945 81.6386L254.079 83.8667C252.987 84.4227 251.652 84.1043 250.928 83.1151L252.945 81.6386ZM262.074 76.9939L260.94 74.7657C261.418 74.5223 261.963 74.4393 262.492 74.5291L262.074 76.9939ZM266.638 77.768L268.033 79.8423C267.501 80.2002 266.852 80.34 266.22 80.2328L266.638 77.768ZM281.281 67.9172L279.885 65.8429C280.548 65.3973 281.383 65.2948 282.133 65.5671L281.281 67.9172ZM286.415 69.7801L286.963 72.2194C286.497 72.324 286.011 72.293 285.563 72.1302L286.415 69.7801ZM291.455 68.6487L290.907 66.2095C291.955 65.9743 293.035 66.434 293.592 67.3516L291.455 68.6487ZM296.494 76.9514L297.239 79.3378C296.142 79.6801 294.953 79.2307 294.357 78.2485L296.494 76.9514ZM300.583 75.6753L299.838 73.2889C300.829 72.9797 301.907 73.3147 302.548 74.1306L300.583 75.6753ZM303.15 78.9419L304.407 81.1031C303.329 81.7297 301.955 81.4668 301.184 80.4867L303.15 78.9419ZM306.193 77.1725L304.936 75.0114C305.511 74.6765 306.197 74.5853 306.841 74.758L306.193 77.1725ZM313.8 79.2142L314.367 81.649C313.966 81.7423 313.549 81.7353 313.152 81.6287L313.8 79.2142ZM318.839 78.0402L321 79.2974C320.654 79.8927 320.077 80.3188 319.406 80.475L318.839 78.0402ZM330.534 57.9387L328.374 56.6815C328.795 55.9576 329.55 55.4927 330.386 55.4431C331.222 55.3935 332.028 55.7657 332.531 56.4347L330.534 57.9387ZM340.138 70.6904L341.711 72.633C341.184 73.06 340.506 73.2544 339.833 73.1717C339.16 73.089 338.549 72.7362 338.141 72.1944L340.138 70.6904ZM350.787 62.0645L349.214 60.1218C350.196 59.326 351.618 59.389 352.527 60.2687L350.787 62.0645ZM357.348 68.4191L358.838 70.4265C357.855 71.1562 356.489 71.0666 355.609 70.2148L357.348 68.4191ZM362.483 64.608L360.993 62.6006C361.823 61.9841 362.948 61.9427 363.822 62.4966L362.483 64.608ZM367.998 68.1043L369.336 65.9929C369.354 66.0045 369.373 66.0163 369.391 66.0283L367.998 68.1043ZM374.083 72.1876L375.391 74.3185C374.557 74.8298 373.502 74.8083 372.69 74.2635L374.083 72.1876ZM382.736 66.8793L381.428 64.7484C382.447 64.1237 383.765 64.3067 384.574 65.1853L382.736 66.8793ZM389.296 73.9995L388.689 76.4246C388.216 76.3061 387.788 76.052 387.458 75.6936L389.296 73.9995ZM396.903 75.905L397.774 78.2485C397.301 78.4243 396.785 78.4528 396.296 78.3301L396.903 75.905ZM402.513 73.8209L401.643 71.4774C402.321 71.2252 403.076 71.2797 403.711 71.6267L402.513 73.8209ZM407.077 76.3134L407.697 78.7353C407.084 78.8922 406.435 78.8108 405.879 78.5075L407.077 76.3134ZM411.166 75.267L410.546 72.8451C411.153 72.6897 411.796 72.768 412.348 73.0643L411.166 75.267ZM417.251 78.5336L416.098 80.7518C416.088 80.7467 416.079 80.7415 416.069 80.7363L417.251 78.5336ZM425.809 82.9827L425.045 85.363C424.911 85.32 424.781 85.2657 424.656 85.2008L425.809 82.9827ZM435.983 86.2493L436.402 88.7139C436.006 88.7811 435.6 88.7522 435.219 88.6296L435.983 86.2493ZM450.151 83.8419L450.991 86.1964C450.854 86.2453 450.713 86.2821 450.569 86.3065L450.151 83.8419ZM467.931 77.4958L469.647 79.3146C469.395 79.5517 469.097 79.7341 468.772 79.8503L467.931 77.4958ZM476.013 69.8737L474.298 68.055C474.833 67.5505 475.563 67.3071 476.293 67.3894C477.024 67.4718 477.681 67.8715 478.09 68.4823L476.013 69.8737ZM479.627 75.267L480.236 77.6915C479.213 77.949 478.137 77.5356 477.55 76.6585L479.627 75.267ZM484.666 73.9995L484.057 71.575C484.949 71.3504 485.894 71.6348 486.514 72.3153L484.666 73.9995ZM487.233 76.8153L488.335 79.0595C487.337 79.5494 486.135 79.3212 485.386 78.4995L487.233 76.8153ZM490.751 75.0884L489.65 72.8442C490.438 72.4575 491.37 72.5121 492.107 72.9881L490.751 75.0884ZM494.27 77.3597L495.529 79.5194C494.715 79.9936 493.704 79.9707 492.913 79.46L494.27 77.3597ZM496.837 75.8625L495.578 73.7028C496.532 73.1465 497.738 73.2822 498.545 74.0366L496.837 75.8625ZM503.968 82.5318L505.663 84.3694C504.701 85.2571 503.217 85.252 502.261 84.3577L503.968 82.5318ZM509.483 77.4448L507.788 75.6071C508.748 74.7216 510.228 74.7243 511.185 75.6134L509.483 77.4448ZM516.615 84.0715L517.323 86.469C516.476 86.7194 515.56 86.5042 514.913 85.9029L516.615 84.0715ZM535.346 78.5336L534.637 76.1362C535.344 75.9272 536.107 76.0409 536.723 76.4468L535.346 78.5336ZM547.042 86.2493L548.735 88.0882C547.89 88.8664 546.624 88.9686 545.665 88.3361L547.042 86.2493ZM555.123 78.8058L553.43 76.9669C554.28 76.1838 555.556 76.0858 556.516 76.7298L555.123 78.8058ZM558.166 80.8475L559.901 82.6477C559.053 83.4645 557.751 83.5793 556.773 82.9235L558.166 80.8475ZM562.73 76.4495L560.996 74.6492C561.643 74.0255 562.575 73.7973 563.438 74.0516L562.73 76.4495ZM573.95 79.7586L575.636 81.605C574.99 82.1948 574.082 82.404 573.243 82.1565L573.95 79.7586ZM580.036 74.2037L582.448 74.8624C582.323 75.3191 582.071 75.7309 581.721 76.0501L580.036 74.2037ZM588.593 42.8732L586.182 42.2145C586.418 41.3504 587.098 40.6786 587.965 40.4534C588.832 40.2283 589.753 40.4843 590.38 41.1244L588.593 42.8732ZM592.682 47.05L595.062 47.8144C594.794 48.6485 594.109 49.2816 593.257 49.483C592.404 49.6845 591.508 49.4249 590.896 48.7989L592.682 47.05ZM594.679 40.8316L592.299 40.0673C592.528 39.354 593.064 38.781 593.761 38.5061C594.458 38.2311 595.241 38.2831 595.896 38.6478L594.679 40.8316ZM599.243 43.3751L600.685 45.417C599.9 45.9718 598.866 46.027 598.026 45.5589L599.243 43.3751ZM603.807 40.151L602.365 38.1091C603.016 37.6491 603.847 37.5273 604.603 37.7812C605.359 38.0351 605.948 38.6343 606.19 39.3942L603.807 40.151ZM606.85 49.7297L608.746 51.3583C608.156 52.0462 607.239 52.3603 606.351 52.1794C605.462 51.9984 604.741 51.3506 604.467 50.4865L606.85 49.7297ZM612.459 43.1965L610.563 41.5678C611.43 40.5576 612.937 40.4045 613.99 41.2199L612.459 43.1965ZM615.502 45.5529L617.828 46.4705C617.539 47.2022 616.923 47.7553 616.164 47.9636C615.406 48.1719 614.594 48.0111 613.971 47.5295L615.502 45.5529ZM622.538 27.7226L620.213 26.8049C620.534 25.9917 621.256 25.4052 622.118 25.2582C622.98 25.1112 623.856 25.4251 624.428 26.086L622.538 27.7226ZM626.627 32.4439L628.433 34.1724C627.947 34.6808 627.268 34.9606 626.565 34.9431C625.862 34.9256 625.198 34.6125 624.737 34.0805L626.627 32.4439ZM631.667 27.1782L629.86 25.4497C630.452 24.8318 631.318 24.5591 632.156 24.7267C632.995 24.8943 633.69 25.479 633.998 26.2767L631.667 27.1782ZM645.454 62.8386L647.627 64.0744C647.15 64.9137 646.232 65.4032 645.269 65.3318C644.306 65.2603 643.47 64.6408 643.122 63.7401L645.454 62.8386ZM648.496 57.4879L646.323 56.2521C646.782 55.4442 647.652 54.9578 648.581 54.9893C649.51 55.0208 650.345 55.5651 650.748 56.4023L648.496 57.4879ZM665.707 93.1908L667.734 94.653C667.219 95.3678 666.365 95.7584 665.487 95.6812C664.609 95.6039 663.837 95.0702 663.455 94.2764L665.707 93.1908ZM691.094 57.9813L689.066 56.5191C689.555 55.8414 690.35 55.4526 691.185 55.4829C692.02 55.5131 692.784 55.9584 693.223 56.6696L691.094 57.9813ZM698.701 70.3246L700.967 71.3811C700.578 72.2144 699.764 72.7671 698.846 72.8204C697.928 72.8737 697.055 72.4189 696.573 71.6362L698.701 70.3246ZM708.304 49.7297L706.039 48.6731C706.34 48.0265 706.904 47.5396 707.587 47.3348C708.271 47.1301 709.009 47.2271 709.616 47.6014L708.304 49.7297ZM710.872 51.3119L713.229 52.1443C712.977 52.857 712.417 53.4176 711.704 53.6692C710.991 53.9209 710.203 53.8367 709.56 53.4402L710.872 51.3119ZM713.915 42.6946L711.557 41.8622C712.005 40.5932 713.377 39.9067 714.662 40.3088L713.915 42.6946ZM716.957 43.6473L719.058 45.0027C718.448 45.9475 717.283 46.3691 716.21 46.0331L716.957 43.6473ZM729.603 24.0477L727.503 22.6923C727.972 21.9652 728.783 21.5324 729.649 21.5481C730.514 21.5638 731.309 22.0258 731.752 22.7694L729.603 24.0477ZM733.597 30.7596L735.206 32.6734C734.644 33.1454 733.903 33.3469 733.18 33.2246C732.457 33.1022 731.823 32.6683 731.448 32.0379L733.597 30.7596ZM737.21 27.7226L735.602 25.8088C736.233 25.2778 737.087 25.0928 737.882 25.3145C738.677 25.5361 739.311 26.1358 739.577 26.9171L737.21 27.7226ZM740.253 36.6633L742.529 37.6987C742.104 38.6316 741.153 39.2109 740.129 39.1602C739.106 39.1095 738.217 38.439 737.886 37.4687L740.253 36.6633ZM749.381 16.6043L747.105 15.5688C747.513 14.6721 748.41 14.0987 749.395 14.1043C750.38 14.11 751.271 14.6937 751.668 15.5951L749.381 16.6043ZM753.945 26.9485L756.084 28.2429C755.601 29.0405 754.715 29.5033 753.784 29.4433C752.854 29.3834 752.034 28.8107 751.658 27.9577L753.945 26.9485ZM756.988 21.921L754.849 20.6266C755.36 19.7824 756.32 19.3177 757.299 19.4404C758.278 19.5632 759.093 20.2504 759.38 21.1946L756.988 21.921ZM760.981 35.0725L762.638 36.9444C762.001 37.5088 761.12 37.7099 760.301 37.4781C759.481 37.2463 758.836 36.6136 758.589 35.7989L760.981 35.0725ZM764.594 31.8739L762.938 30.002C763.899 29.1505 765.35 29.1666 766.293 30.0393L764.594 31.8739ZM767.067 34.1623L769.136 35.5651C768.727 36.1683 768.075 36.563 767.351 36.646C766.627 36.729 765.903 36.4919 765.368 35.9969L767.067 34.1623ZM771.155 28.131L769.086 26.7281C769.637 25.9153 770.613 25.5004 771.581 25.6674C772.548 25.8344 773.328 26.5525 773.575 27.5031L771.155 28.131ZM777.241 51.5842L777.613 54.0562C776.348 54.247 775.142 53.451 774.821 52.2121L777.241 51.5842ZM780.854 51.0397L782.672 52.756C782.288 53.1624 781.779 53.4285 781.226 53.5118L780.854 51.0397ZM792.074 39.1557L790.256 37.4395C790.377 37.3113 790.511 37.1963 790.656 37.0963L792.074 39.1557ZM797.018 35.753L795.601 33.6936C795.858 33.5165 796.147 33.3892 796.451 33.3183L797.018 35.753ZM801.107 34.8003L803.479 35.591C803.204 36.4154 802.521 37.0378 801.674 37.2351L801.107 34.8003ZM805.1 22.8227L802.729 22.032C803.046 21.0802 803.902 20.4103 804.902 20.3306C805.902 20.2509 806.853 20.7769 807.317 21.6664L805.1 22.8227ZM810.71 33.5753L813.114 34.2631C812.832 35.2465 811.98 35.9593 810.962 36.0625C809.945 36.1658 808.967 35.6386 808.494 34.7317L810.71 33.5753ZM818.317 6.99162L815.913 6.30386C816.102 5.64503 816.553 5.09246 817.16 4.77537C817.768 4.45828 818.479 4.40446 819.127 4.62649L818.317 6.99162ZM824.402 9.07579L825.212 6.71064C825.475 6.80038 825.72 6.93306 825.938 7.10324L824.402 9.07579ZM826.97 11.0749L829.236 12.1304C828.915 12.8206 828.296 13.3267 827.556 13.5052C826.816 13.6837 826.035 13.5152 825.434 13.0474L826.97 11.0749ZM830.963 2.50004L828.697 1.44458C829.135 0.504574 830.108 -0.0675852 831.142 0.00641994C832.176 0.0804404 833.057 0.785259 833.357 1.77801L830.963 2.50004ZM847.223 56.399L845.685 58.3696C845.277 58.0518 844.979 57.6156 844.829 57.121L847.223 56.399ZM855.875 63.1534L857.458 65.0885C856.554 65.8282 855.258 65.8429 854.337 65.124L855.875 63.1534ZM866.525 54.4424L864.942 52.5074C865.865 51.7525 867.192 51.7543 868.113 52.5118L866.525 54.4424ZM878.22 64.0636L879.94 65.878C879.025 66.7458 877.606 66.7956 876.632 65.9943L878.22 64.0636ZM885.256 57.3943L887.416 58.6536C887.297 58.8586 887.148 59.0455 886.976 59.2087L885.256 57.3943ZM890.866 47.7731L893.261 48.4936C893.204 48.6818 893.125 48.8627 893.026 49.0324L890.866 47.7731ZM896.381 29.4495L893.987 28.729C894.29 27.724 895.188 27.0149 896.236 26.9538C897.283 26.8926 898.258 27.4924 898.675 28.4554L896.381 29.4495ZM909.123 58.849L910.169 61.1193C909.558 61.4011 908.859 61.4245 908.23 61.1843C907.602 60.9441 907.096 60.4606 906.829 59.8431L909.123 58.849ZM914.733 56.2629L916.948 57.4213C916.692 57.9109 916.281 58.302 915.779 58.5333L914.733 56.2629ZM927.854 31.1679L925.639 30.0095C926.028 29.2652 926.765 28.7661 927.601 28.6808C928.436 28.5955 929.259 28.9355 929.79 29.5859L927.854 31.1679ZM940.5 46.6417L940.042 49.0994C939.462 48.9911 938.938 48.6809 938.565 48.2237L940.5 46.6417ZM946.111 47.6881L947.574 49.715C947.019 50.1155 946.325 50.2711 945.652 50.1457L946.111 47.6881ZM950.199 44.7362L948.736 42.7093C949.837 41.9142 951.372 42.1439 952.192 43.2267L950.199 44.7362ZM958.757 56.0332L957.031 57.8418C956.934 57.7495 956.845 57.6494 956.764 57.5428L958.757 56.0332ZM963.891 60.9331L964.722 63.2909C963.835 63.6038 962.846 63.3916 962.165 62.7417L963.891 60.9331ZM978.059 55.9396L980.006 57.5072C979.715 57.8693 979.328 58.143 978.89 58.2975L978.059 55.9396ZM983.098 49.6786L985.358 50.7473C985.274 50.9253 985.169 51.0928 985.046 51.2462L983.098 49.6786ZM997.836 18.5098L995.576 17.4411C995.992 16.5622 996.879 16.0039 997.852 16.0098C998.824 16.0158 999.704 16.5848 1000.11 17.4687L997.836 18.5098ZM1018.18 62.9322L1016.1 64.3164C1016.03 64.2072 1015.97 64.0925 1015.91 63.9733L1018.18 62.9322ZM1026.27 75.0884L1028.64 75.8601C1028.35 76.7722 1027.56 77.4347 1026.61 77.5652C1025.66 77.6956 1024.72 77.2712 1024.18 76.4726L1026.27 75.0884ZM1039.96 32.8948L1037.58 32.1231C1037.9 31.1454 1038.78 30.4615 1039.81 30.3994C1040.83 30.3372 1041.79 30.9095 1042.23 31.8418L1039.96 32.8948ZM1046.99 48.0454L1048.86 49.713C1048.3 50.3394 1047.46 50.6419 1046.63 50.5181C1045.8 50.3944 1045.08 49.8609 1044.73 49.0984L1046.99 48.0454ZM1055.65 38.3816L1053.79 36.714C1054.61 35.7951 1055.98 35.6136 1057.01 36.2864L1055.65 38.3816ZM1062.21 42.652L1063.26 44.9197C1062.48 45.2823 1061.57 45.2172 1060.84 44.7473L1062.21 42.652ZM1065.25 41.2399L1064.2 38.9723C1065.23 38.4914 1066.46 38.7739 1067.19 39.6586L1065.25 41.2399ZM1068.29 44.9659L1067.22 47.2222C1066.88 47.0634 1066.59 46.8329 1066.36 46.5472L1068.29 44.9659ZM1077.99 49.5936L1079.56 51.5399C1078.81 52.1436 1077.78 52.2641 1076.92 51.8499L1077.99 49.5936ZM1086.55 42.6946L1084.98 40.7483C1085.79 40.1002 1086.9 40.0131 1087.8 40.529L1086.55 42.6946ZM1090.16 44.7788L1091.72 46.7369C1090.91 47.3746 1089.8 47.4568 1088.91 46.9443L1090.16 44.7788ZM1099.77 37.1567L1098.21 35.1985C1099.02 34.5558 1100.14 34.4778 1101.04 35.0022L1099.77 37.1567ZM1106.33 41.0188L1108.46 42.3304C1107.74 43.489 1106.23 43.8636 1105.06 43.1732L1106.33 41.0188ZM1125.82 9.39053L1123.69 8.07888C1124.18 7.2803 1125.08 6.82443 1126.02 6.89829C1126.95 6.97216 1127.77 7.56333 1128.13 8.42928L1125.82 9.39053ZM1140.84 45.4593L1141.65 47.8255C1140.4 48.2505 1139.04 47.636 1138.54 46.4205L1140.84 45.4593ZM1145.88 43.7409L1145.08 41.3747C1145.84 41.1144 1146.68 41.2384 1147.34 41.7078C1147.99 42.1772 1148.38 42.9343 1148.38 43.7409L1145.88 43.7409ZM1145.88 46.5482L1146.2 49.0284C1145.48 49.1185 1144.77 48.8981 1144.23 48.4235C1143.69 47.949 1143.38 47.2659 1143.38 46.5482L1145.88 46.5482ZM1153.01 45.6464L1152.7 43.1662C1153.41 43.0762 1154.13 43.2965 1154.67 43.7711C1155.21 44.2457 1155.51 44.9288 1155.51 45.6464L1153.01 45.6464ZM1153.01 46.7353L1151.3 48.551C1150.8 48.0788 1150.51 47.4222 1150.51 46.7353L1153.01 46.7353ZM1159.57 52.9453L1158.59 55.2415C1158.32 55.1254 1158.07 54.9627 1157.86 54.7609L1159.57 52.9453ZM1170.22 57.5304L1172.63 58.217C1172.43 58.9082 1171.95 59.4809 1171.3 59.7891C1170.65 60.0972 1169.9 60.1109 1169.24 59.8266L1170.22 57.5304ZM1175.83 37.8883L1173.43 37.2017C1173.72 36.1742 1174.64 35.4468 1175.71 35.3916C1176.77 35.3364 1177.76 35.9656 1178.15 36.9574L1175.83 37.8883ZM1183.44 56.8499L1185.02 58.7882C1184.4 59.2903 1183.59 59.4692 1182.82 59.2704C1182.05 59.0715 1181.42 58.5185 1181.12 57.7807L1183.44 56.8499ZM1188.01 53.1324L1186.43 51.1941C1187.01 50.7184 1187.78 50.5313 1188.52 50.685C1189.25 50.8386 1189.88 51.3165 1190.23 51.9858L1188.01 53.1324ZM1194.09 64.9228L1194.98 67.2596C1193.79 67.7115 1192.45 67.1993 1191.87 66.0694L1194.09 64.9228ZM1200.18 62.609L1199.29 60.2722C1200.14 59.9495 1201.09 60.1123 1201.79 60.6974L1200.18 62.609ZM1210.35 71.1838L1212.56 72.3444C1212.21 73.0156 1211.58 73.491 1210.83 73.637C1210.09 73.783 1209.32 73.5838 1208.74 73.0954L1210.35 71.1838ZM1217.96 56.6712L1215.74 55.5106C1216.21 54.6281 1217.15 54.1045 1218.14 54.178C1219.13 54.2515 1219.99 54.9081 1220.32 55.849L1217.96 56.6712ZM1223 71.1413L1224.96 72.6885C1224.39 73.4058 1223.48 73.7578 1222.58 73.6069C1221.68 73.4559 1220.94 72.8259 1220.64 71.9635L1223 71.1413ZM1226.04 67.2792L1224.08 65.732C1224.64 65.015 1225.55 64.6629 1226.45 64.8134C1227.35 64.9639 1228.1 65.5931 1228.4 66.4548L1226.04 67.2792ZM1229.56 77.3512L1231.87 78.298C1231.48 79.2596 1230.53 79.8776 1229.49 79.8504C1228.45 79.8232 1227.54 79.1565 1227.2 78.1756L1229.56 77.3512ZM1242.77 45.051L1240.46 44.1042C1240.8 43.2813 1241.54 42.6991 1242.43 42.5753C1243.31 42.4515 1244.19 42.8047 1244.74 43.5028L1242.77 45.051ZM1248.86 52.7666L1250.87 54.2538C1250.41 54.88 1249.68 55.2544 1248.9 55.2663C1248.12 55.2783 1247.38 54.9265 1246.9 54.3148L1248.86 52.7666ZM1253.42 46.5992L1251.41 45.112C1251.95 44.3863 1252.84 44.0065 1253.73 44.1185C1254.63 44.2305 1255.4 44.8168 1255.74 45.6524L1253.42 46.5992ZM1257.99 57.7516L1256.41 59.6873C1256.08 59.4238 1255.83 59.0839 1255.67 58.6985L1257.99 57.7516ZM1263.6 62.3368L1264.42 64.6977C1263.6 64.9835 1262.69 64.8225 1262.02 64.2725L1263.6 62.3368ZM1267.12 61.1118L1266.29 58.7508C1267.44 58.3522 1268.7 58.8322 1269.3 59.8894L1267.12 61.1118ZM1273.68 72.8171L1272.33 74.925C1271.98 74.7033 1271.7 74.3991 1271.5 74.0394L1273.68 72.8171ZM1281.85 78.0318L1281.15 80.4295C1280.92 80.3632 1280.71 80.2656 1280.51 80.1396L1281.85 78.0318ZM1295.55 82.0725L1297.25 83.9024C1296.6 84.5045 1295.69 84.7204 1294.84 84.4703L1295.55 82.0725ZM1299.54 78.355L1297.84 76.5251C1298.73 75.6965 1300.08 75.6287 1301.05 76.3643L1299.54 78.355ZM1305.15 82.6169L1306.86 84.4387C1305.97 85.2746 1304.61 85.346 1303.64 84.6076L1305.15 82.6169ZM1317.8 70.7329L1316.08 68.9111C1316.98 68.073 1318.34 68.0038 1319.31 68.7475L1317.8 70.7329ZM1321.41 73.4976L1323.8 74.2327C1323.56 75.0147 1322.95 75.6295 1322.17 75.8788C1321.39 76.1281 1320.54 75.9803 1319.89 75.4831L1321.41 73.4976ZM1325.97 58.6618L1323.58 57.9268C1323.89 56.9374 1324.77 56.238 1325.8 56.1676C1326.84 56.0973 1327.8 56.6706 1328.24 57.6095L1325.97 58.6618ZM1331.49 70.5458L1333.81 71.4827C1333.43 72.4061 1332.55 73.0199 1331.55 73.045C1330.55 73.0701 1329.64 72.5017 1329.22 71.5982L1331.49 70.5458ZM1338.62 52.9027L1336.3 51.9659C1336.68 51.0401 1337.56 50.4258 1338.56 50.4034C1339.56 50.381 1340.48 50.9548 1340.89 51.8629L1338.62 52.9027ZM1343.18 62.8812L1345.21 64.3486C1344.68 65.0684 1343.82 65.4569 1342.94 65.3689C1342.05 65.2809 1341.28 64.7296 1340.91 63.9211L1343.18 62.8812ZM1348.41 55.6674L1346.39 54.2001C1347.16 53.1342 1348.63 52.8502 1349.74 53.5507L1348.41 55.6674ZM1352.31 58.1174L1353.45 60.3413C1352.67 60.7445 1351.73 60.7038 1350.98 60.2341L1352.31 58.1174ZM1354.88 56.7988L1353.74 54.575C1354.55 54.1555 1355.53 54.2175 1356.29 54.7367L1354.88 56.7988ZM1359.92 60.2526L1361.33 58.1904C1361.62 58.3863 1361.86 58.6394 1362.04 58.9338L1359.92 60.2526ZM1372.56 80.6178L1371.55 82.9009C1371.09 82.6972 1370.7 82.3614 1370.44 81.9367L1372.56 80.6178ZM1379.7 83.7994L1381.9 84.9831C1381.28 86.1364 1379.87 86.6159 1378.68 86.0825L1379.7 83.7994ZM1384.26 75.3096L1382.06 74.1258C1382.66 73.0139 1383.99 72.5221 1385.16 72.9794L1384.26 75.3096ZM1387.3 76.492L1389.53 77.6262C1388.95 78.7703 1387.59 79.2873 1386.4 78.8223L1387.3 76.492ZM1393.86 63.6043L1391.63 62.4701C1392.02 61.7066 1392.78 61.1953 1393.63 61.1152C1394.48 61.0352 1395.32 61.3975 1395.84 62.0754L1393.86 63.6043ZM1406.03 79.3503L1404.45 81.286C1404.3 81.1659 1404.17 81.0294 1404.06 80.8792L1406.03 79.3503ZM1411.64 83.9355L1412.56 86.2617C1411.72 86.5931 1410.76 86.4438 1410.06 85.8712L1411.64 83.9355ZM1419.25 80.9411L1418.33 78.6148C1419.23 78.2605 1420.26 78.4573 1420.96 79.12L1419.25 80.9411ZM1422.77 84.2502L1424.3 86.2252C1423.33 86.9798 1421.95 86.9145 1421.06 86.0713L1422.77 84.2502ZM1426.86 81.0772L1425.32 79.1022C1426.11 78.4904 1427.19 78.406 1428.06 78.8874L1426.86 81.0772ZM1429.9 82.753L1430.48 85.1848C1429.88 85.3291 1429.24 85.2428 1428.69 84.9429L1429.9 82.753ZM1439.03 80.5753L1438.45 78.1435C1438.8 78.0584 1439.18 78.0528 1439.54 78.1273L1439.03 80.5753ZM1447.11 82.2511L1447.97 84.5983C1447.53 84.7588 1447.06 84.7937 1446.6 84.6991L1447.11 82.2511ZM1455.76 79.0781L1454.9 76.7309C1455.31 76.5829 1455.74 76.5415 1456.17 76.6107L1455.76 79.0781ZM1463.84 80.3967L1464.68 82.7534C1464.28 82.8937 1463.86 82.9317 1463.44 82.864L1463.84 80.3967ZM1468.22 78.8484L1467.38 76.4917C1468.04 76.2582 1468.77 76.3119 1469.39 76.6397L1468.22 78.8484ZM1478.58 84.3438L1479.25 86.7537C1478.63 86.9235 1477.98 86.8515 1477.41 86.5525L1478.58 84.3438ZM1484.19 82.7956L1483.53 80.3856C1484.07 80.2361 1484.65 80.2736 1485.16 80.4921L1484.19 82.7956ZM1488.19 84.4799L1489.51 86.6036C1488.82 87.0316 1487.96 87.0987 1487.21 86.7834L1488.19 84.4799ZM1494.84 80.3456L1493.52 78.2219C1494.12 77.8499 1494.85 77.7481 1495.53 77.9416L1494.84 80.3456ZM1498.36 81.3494L1498.88 83.794C1498.48 83.8797 1498.07 83.8658 1497.67 83.7535L1498.36 81.3494ZM1508.53 79.1717L1510.55 80.6527C1510.19 81.1455 1509.66 81.4883 1509.06 81.6163L1508.53 79.1717ZM1516.14 68.8274L1514.13 67.3464C1514.57 66.746 1515.25 66.3739 1516 66.3315C1516.74 66.2891 1517.47 66.5807 1517.97 67.127L1516.14 68.8274ZM1524.22 77.5384L1525.29 79.7984C1524.31 80.2645 1523.13 80.0381 1522.39 79.2388L1524.22 77.5384ZM1534.87 72.5024L1533.8 70.2423C1534.43 69.9444 1535.16 69.923 1535.81 70.1832L1534.87 72.5024ZM1537.92 73.7273L1540.06 75.0201C1539.42 76.0697 1538.12 76.5044 1536.98 76.0465L1537.92 73.7273ZM1540.96 68.6913L1538.82 67.3985C1539.46 66.3303 1540.8 65.9017 1541.95 66.3943L1540.96 68.6913ZM1549.61 72.4088L1550.47 74.7578C1549.87 74.9758 1549.21 74.9572 1548.62 74.7058L1549.61 72.4088ZM1553.6 70.9541L1555.6 72.4592C1555.31 72.8448 1554.91 73.1379 1554.46 73.3031L1553.6 70.9541ZM1562.26 59.4785L1560.26 57.9734C1561.06 56.9202 1562.53 56.6652 1563.63 57.3906L1562.26 59.4785ZM1577 69.1847L1578.28 71.3318C1577.45 71.8229 1576.42 71.7999 1575.62 71.2726L1577 69.1847ZM1590.69 61.0182L1589.41 58.8711C1590.33 58.3231 1591.49 58.4205 1592.31 59.1133L1590.69 61.0182ZM1593.73 63.6043L1595.32 65.5307C1594.39 66.3035 1593.03 66.2944 1592.11 65.5092L1593.73 63.6043ZM1598.77 59.436L1597.18 57.5095C1598 56.8299 1599.16 56.7463 1600.07 57.3012L1598.77 59.436ZM1601.81 61.2904L1602.92 63.5335C1602.15 63.9112 1601.24 63.8703 1600.51 63.4252L1601.81 61.2904ZM1604.85 59.7932L1603.75 57.5501C1604.76 57.052 1605.98 57.2936 1606.73 58.1397L1604.85 59.7932ZM1615.98 72.4088L1615.6 74.88C1615.02 74.7913 1614.49 74.5019 1614.1 74.0623L1615.98 72.4088ZM1645.93 76.9939L1646.61 79.3996C1646.27 79.4969 1645.91 79.5193 1645.55 79.4652L1645.93 76.9939ZM1677.88 67.9597L1679.72 69.6486C1679.41 69.9909 1679.01 70.2391 1678.56 70.3654L1677.88 67.9597ZM1682.16 63.2895L1680.32 61.6007C1680.97 60.8816 1681.99 60.6113 1682.92 60.9083L1682.16 63.2895ZM1693.09 66.7858L1695.07 68.3168C1694.43 69.1473 1693.33 69.487 1692.33 69.167L1693.09 66.7858ZM1707.26 48.4962L1705.28 46.9653C1705.65 46.4974 1706.16 46.1732 1706.74 46.0505L1707.26 48.4962ZM1710.87 47.7306L1712.99 49.0576C1712.63 49.6321 1712.06 50.0358 1711.39 50.1763L1710.87 47.7306ZM1713.35 43.7835L1711.23 42.4565C1711.9 41.3894 1713.25 40.9859 1714.4 41.5146L1713.35 43.7835ZM1720 46.8629L1719.21 49.2327C1719.12 49.2037 1719.03 49.17 1718.95 49.1319L1720 46.8629ZM1723.52 48.0454L1725.34 49.7549C1724.68 50.4689 1723.65 50.7268 1722.72 50.4151L1723.52 48.0454ZM1735.22 35.5659L1733.39 33.8564C1734 33.2061 1734.91 32.9294 1735.78 33.1302C1736.65 33.331 1737.34 33.9788 1737.6 34.8307L1735.22 35.5659ZM1738.73 46.9991L1739.42 49.402C1738.11 49.7778 1736.74 49.0363 1736.34 47.7343L1738.73 46.9991ZM1743.3 45.689L1742.61 43.286C1743.26 43.0987 1743.96 43.1849 1744.55 43.5246C1745.14 43.8643 1745.56 44.4284 1745.72 45.0873L1743.3 45.689ZM1748.34 66.0117L1750.44 67.3599C1749.9 68.201 1748.92 68.6408 1747.93 68.4785C1746.95 68.3161 1746.15 67.5828 1745.91 66.6134L1748.34 66.0117ZM1766.12 38.2456L1764.01 36.8974C1764.5 36.1382 1765.36 35.6996 1766.26 35.7494C1767.16 35.7992 1767.96 36.3297 1768.36 37.1379L1766.12 38.2456ZM1785.9 78.2615L1787.1 80.4533C1786.5 80.7811 1785.8 80.8508 1785.14 80.6461C1784.49 80.4414 1783.96 79.9802 1783.65 79.3692L1785.9 78.2615ZM1790.93 75.4968L1789.73 73.3049C1790.53 72.8684 1791.5 72.8974 1792.27 73.3808L1790.93 75.4968ZM1799.59 80.9411L1800.85 83.1015C1800.04 83.5698 1799.04 83.5526 1798.26 83.0571L1799.59 80.9411ZM1805.2 77.6745L1803.94 75.5141C1804.6 75.1322 1805.39 75.0689 1806.1 75.3419L1805.2 77.6745ZM1809.19 79.2142L1811.11 80.8214C1810.42 81.6396 1809.29 81.9312 1808.29 81.5469L1809.19 79.2142ZM1811.28 76.7217L1809.37 75.1146C1810.22 74.0954 1811.73 73.9248 1812.79 74.7264L1811.28 76.7217ZM1815.85 80.167L1818.01 81.4152C1817.66 82.0363 1817.05 82.4739 1816.35 82.6168C1815.64 82.7597 1814.91 82.5942 1814.34 82.1623L1815.85 80.167ZM1821.36 70.5969L1819.2 69.3486C1819.61 68.628 1820.36 68.1611 1821.19 68.103C1822.02 68.0449 1822.82 68.4032 1823.33 69.0589L1821.36 70.5969ZM1828.97 80.3456L1831 81.8034C1830.54 82.4433 1829.81 82.8293 1829.02 82.8451C1828.23 82.8609 1827.48 82.5046 1827 81.8835L1828.97 80.3456ZM1836.1 70.4097L1834.07 68.952C1834.46 68.4115 1835.04 68.0479 1835.7 67.9418C1836.36 67.8356 1837.03 67.9956 1837.57 68.3863L1836.1 70.4097ZM1838.67 72.2727L1839.99 74.3948C1839.13 74.9325 1838.02 74.8935 1837.2 74.2961L1838.67 72.2727ZM1841.14 70.733L1839.82 68.6109C1840.58 68.1375 1841.53 68.1068 1842.32 68.5303L1841.14 70.733ZM1844.18 72.3663L1845.36 70.1636C1845.87 70.4351 1846.27 70.8725 1846.49 71.4023L1844.18 72.3663ZM1849.79 85.79L1850.16 88.2626C1849.03 88.4314 1847.93 87.81 1847.49 86.754L1849.79 85.79ZM1854.36 85.1094L1853.99 82.6368C1854.27 82.5947 1854.56 82.6012 1854.84 82.656L1854.36 85.1094ZM1857.4 85.7049L1857.88 83.2514C1858.46 83.3645 1858.98 83.6777 1859.35 84.136L1857.4 85.7049ZM1864.53 94.5519L1863.74 96.9237C1863.29 96.7723 1862.88 96.4937 1862.58 96.1209L1864.53 94.5519ZM1872.14 97.087L1873.08 99.4009C1872.53 99.6273 1871.91 99.6478 1871.35 99.4587L1872.14 97.087ZM1876.13 95.4537L1875.18 93.1397C1876.44 92.6262 1877.88 93.2077 1878.42 94.45L1876.13 95.4537ZM1879.17 102.395L1880.74 104.347C1880.13 104.832 1879.33 105.009 1878.58 104.823C1877.82 104.637 1877.2 104.111 1876.88 103.399L1879.17 102.395ZM1896.95 88.1548L1895.39 86.2035C1895.81 85.8696 1896.32 85.678 1896.85 85.6568L1896.95 88.1548ZM1909.6 87.653L1911.28 89.5032C1910.85 89.8984 1910.29 90.1277 1909.7 90.151L1909.6 87.653ZM1912.64 84.8882L1910.96 83.038C1911.74 82.334 1912.87 82.1873 1913.8 82.6702L1912.64 84.8882ZM1915.69 86.4705L1915.86 88.9641C1915.4 88.9972 1914.94 88.9018 1914.53 88.6885L1915.69 86.4705ZM1923.86 85.8836L1926.13 86.9477C1925.74 87.7658 1924.94 88.3124 1924.04 88.3771L1923.86 85.8836ZM1925.86 81.6387L1923.6 80.5745C1923.92 79.8819 1924.55 79.3768 1925.29 79.2035C1926.04 79.0303 1926.82 79.2081 1927.42 79.6861L1925.86 81.6387ZM1928.9 84.0716L1930.62 85.8862C1929.72 86.7447 1928.32 86.8036 1927.34 86.0242L1928.9 84.0716ZM1931.47 81.6387L1929.75 79.8241C1930.67 78.9512 1932.1 78.9068 1933.07 79.7208L1931.47 81.6387ZM1933.94 83.7058L1936.06 85.0338C1935.68 85.6458 1935.05 86.0619 1934.33 86.175C1933.62 86.2881 1932.89 86.087 1932.34 85.6237L1933.94 83.7058ZM1940.03 73.9996L1937.91 72.6716C1938.34 71.9858 1939.07 71.5506 1939.88 71.5038C1940.69 71.4569 1941.47 71.8043 1941.98 72.4358L1940.03 73.9996ZM1946.68 82.3022L1947.51 84.661C1946.51 85.0125 1945.4 84.6938 1944.73 83.8659L1946.68 82.3022ZM1951.72 80.5328L1950.89 78.174C1951.52 77.9552 1952.2 77.9918 1952.8 78.2759L1951.72 80.5328ZM1955.81 82.4808L1956.36 84.9193C1955.82 85.043 1955.24 84.9791 1954.74 84.7378L1955.81 82.4808ZM1962.85 80.8901L1962.3 78.4516C1962.96 78.302 1963.65 78.4277 1964.22 78.7998L1962.85 80.8901ZM1965.41 82.5744L1966.49 84.8302C1965.7 85.2072 1964.77 85.1444 1964.04 84.6647L1965.41 82.5744ZM1970.45 80.167L1969.38 77.9112C1969.91 77.6576 1970.51 77.5993 1971.08 77.7466L1970.45 80.167ZM1981.67 83.0678L1982.78 85.3095C1982.24 85.5748 1981.63 85.6382 1981.05 85.4882L1981.67 83.0678ZM1989.76 79.0781L1988.65 76.8364C1989.32 76.5075 1990.09 76.492 1990.77 76.794L1989.76 79.0781ZM1996.89 82.2511L1997.89 84.5414C1997.25 84.8232 1996.51 84.821 1995.87 84.5353L1996.89 82.2511ZM2000.41 80.7114L1999.4 78.4212C2000.23 78.0588 2001.19 78.1715 2001.91 78.7161L2000.41 80.7114ZM2009.53 87.6019L2010.96 89.6535C2010.08 90.2715 2008.89 90.2488 2008.03 89.5972L2009.53 87.6019ZM2013.05 85.152L2011.62 83.1004C2012.41 82.555 2013.43 82.5031 2014.27 82.9665L2013.05 85.152ZM2025.79 92.2296L2027.19 94.3022C2026.41 94.8284 2025.4 94.872 2024.58 94.4151L2025.79 92.2296ZM2050.13 75.8115L2052.18 77.254C2052 77.5013 2051.78 77.7148 2051.53 77.8841L2050.13 75.8115ZM2058.69 63.6979L2056.65 62.2554C2057.08 61.6408 2057.77 61.2545 2058.52 61.2036C2059.27 61.1527 2060.01 61.4428 2060.52 61.9932L2058.69 63.6979ZM2089.69 96.9509L2091.24 98.915C2090.22 99.7193 2088.75 99.6065 2087.86 98.6555L2089.69 96.9509ZM2099.77 89.014L2098.22 87.0499C2099.22 86.2608 2100.66 86.3526 2101.55 87.263L2099.77 89.014ZM2105.38 94.7306L2107.21 96.4346C2106.74 96.934 2106.09 97.2215 2105.41 97.2304C2104.73 97.2393 2104.07 96.9688 2103.59 96.4817L2105.38 94.7306ZM2109.94 89.8307L2108.11 88.1267C2108.9 87.2801 2110.17 87.0852 2111.18 87.6556L2109.94 89.8307ZM2114.51 92.4168L2115.53 94.6966C2114.81 95.0235 2113.97 94.9846 2113.27 94.5919L2114.51 92.4168ZM2121.07 89.4649L2122.84 91.232C2122.62 91.4466 2122.37 91.6203 2122.09 91.7448L2121.07 89.4649ZM2130.77 79.7587L2133.03 80.8141C2132.91 81.0786 2132.74 81.3194 2132.53 81.5257L2130.77 79.7587ZM2138.37 63.4257L2136.11 62.3702C2136.51 61.5053 2137.37 60.9451 2138.32 60.9261C2139.28 60.9072 2140.16 61.4329 2140.6 62.2811L2138.37 63.4257ZM2146.46 79.1207L2144.92 81.0944C2144.63 80.8713 2144.4 80.5884 2144.23 80.2652L2146.46 79.1207ZM2170.32 97.674L2172.72 98.3642C2172.5 99.1617 2171.89 99.7936 2171.1 100.051C2170.31 100.308 2169.44 100.157 2168.79 99.6477L2170.32 97.674ZM2179.93 64.2423L2177.52 63.5521C2177.81 62.5476 2178.69 61.8286 2179.74 61.7495C2180.78 61.6704 2181.76 62.2478 2182.2 63.1972L2179.93 64.2423ZM2194.66 96.2703L2197.06 96.9702C2196.77 97.9718 2195.89 98.6867 2194.85 98.7635C2193.81 98.8404 2192.83 98.2631 2192.39 97.3154L2194.66 96.2703ZM2200.75 75.4032L2198.35 74.7033C2198.57 73.9498 2199.13 73.3432 2199.86 73.0653C2200.6 72.7873 2201.42 72.8701 2202.08 73.289L2200.75 75.4032ZM2204.27 77.6235L2206.51 78.7191C2206.2 79.3577 2205.63 79.8337 2204.95 80.0281C2204.27 80.2225 2203.53 80.1169 2202.93 79.7377L2204.27 77.6235ZM2206.83 72.3578L2204.59 71.2622C2205.01 70.3992 2205.89 69.8535 2206.85 69.8578C2207.81 69.8621 2208.68 70.4158 2209.09 71.2825L2206.83 72.3578ZM2219 97.9036L2218.25 100.288C2217.59 100.08 2217.05 99.6056 2216.75 98.9789L2219 97.9036ZM2227.09 100.447L2229.37 101.456C2228.86 102.622 2227.55 103.214 2226.34 102.832L2227.09 100.447ZM2231.65 90.1029L2229.36 89.0938C2229.7 88.335 2230.39 87.7916 2231.2 87.6432C2232.02 87.4949 2232.86 87.7609 2233.44 88.3533L2231.65 90.1029ZM2238.4 96.9934L2240.73 97.9095C2240.42 98.6978 2239.73 99.2752 2238.9 99.4436C2238.07 99.6119 2237.21 99.3482 2236.62 98.743L2238.4 96.9934ZM2244.87 80.5753L2242.54 79.6593C2242.84 78.8899 2243.51 78.3201 2244.31 78.1372C2245.12 77.9544 2245.97 78.182 2246.57 78.7454L2244.87 80.5753ZM2268.16 102.259L2270.54 103.03C2270.28 103.842 2269.62 104.464 2268.79 104.679C2267.96 104.894 2267.09 104.671 2266.46 104.089L2268.16 102.259ZM2278.34 70.8606L2275.96 70.09C2276.24 69.2278 2276.96 68.5843 2277.85 68.4082C2278.74 68.2321 2279.66 68.5511 2280.24 69.2417L2278.34 70.8606ZM2280.81 73.7699L2282.76 75.3297C2282.3 75.9134 2281.59 76.2582 2280.85 76.2696C2280.1 76.281 2279.39 75.9579 2278.9 75.3888L2280.81 73.7699ZM2283.85 69.9589L2281.9 68.3991C2282.49 67.6607 2283.44 67.3177 2284.37 67.5127C2285.29 67.7076 2286.03 68.4071 2286.27 69.3207L2283.85 69.9589ZM2288.42 87.2446L2286.09 88.1592C2286.05 88.0689 2286.02 87.9766 2286 87.8829L2288.42 87.2446ZM2297.54 110.468L2299.9 111.306C2299.55 112.288 2298.63 112.951 2297.59 112.968C2296.54 112.985 2295.6 112.353 2295.22 111.383L2297.54 110.468ZM2302.11 97.6314L2299.75 96.7939C2300.11 95.7772 2301.09 95.1071 2302.17 95.1321C2303.25 95.1571 2304.19 95.8714 2304.5 96.9038L2302.11 97.6314ZM2307.24 114.509L2305.15 115.877C2305.02 115.678 2304.92 115.463 2304.85 115.237L2307.24 114.509ZM2312.76 122.948L2314.42 124.816C2313.88 125.299 2313.15 125.522 2312.43 125.426C2311.71 125.329 2311.06 124.924 2310.67 124.315L2312.76 122.948ZM2320.36 116.185L2322.78 116.838C2322.65 117.307 2322.39 117.73 2322.03 118.053L2320.36 116.185ZM2327.02 91.5916L2324.61 90.9385C2324.88 89.9351 2325.74 89.2044 2326.78 89.1034C2327.81 89.0024 2328.8 89.5521 2329.26 90.4841L2327.02 91.5916ZM2331.01 99.6731L2333.36 100.527C2333.02 101.468 2332.15 102.114 2331.15 102.169C2330.15 102.224 2329.22 101.678 2328.77 100.781L2331.01 99.6731ZM2334.63 89.7371L2332.28 88.8828C2332.56 88.1161 2333.19 87.5337 2333.98 87.3224C2334.77 87.1112 2335.61 87.2976 2336.23 87.822L2334.63 89.7371ZM2338.15 92.689L2340.54 93.4093C2340.3 94.2144 2339.67 94.8438 2338.86 95.0844C2338.06 95.325 2337.18 95.1446 2336.54 94.6042L2338.15 92.689ZM2340.71 84.1567L2338.32 83.4364C2338.62 82.4341 2339.51 81.7258 2340.56 81.6614C2341.6 81.5971 2342.58 82.1903 2343 83.1479L2340.71 84.1567ZM2353.36 112.833L2355.77 113.489C2355.49 114.511 2354.6 115.247 2353.55 115.326C2352.49 115.405 2351.5 114.811 2351.07 113.842L2353.36 112.833ZM2362.49 79.2568L2360.07 78.6009C2360.36 77.5569 2361.28 76.814 2362.36 76.7599C2363.44 76.7058 2364.44 77.3529 2364.82 78.3633L2362.49 79.2568ZM2375.13 112.306L2374.3 114.664C2373.61 114.421 2373.06 113.885 2372.8 113.199L2375.13 112.306ZM2381.79 114.645L2383.84 116.071C2383.2 116.995 2382.02 117.377 2380.96 117.004L2381.79 114.645ZM2397 92.7315L2394.95 91.3058C2395.5 90.5118 2396.46 90.1067 2397.41 90.2655C2398.37 90.4243 2399.14 91.1185 2399.41 92.0484L2397 92.7315ZM2403.56 115.827L2402.77 118.197C2401.98 117.934 2401.38 117.303 2401.16 116.511L2403.56 115.827ZM2411.65 118.55L2413.16 120.54C2412.5 121.041 2411.63 121.183 2410.85 120.919L2411.65 118.55ZM2414.69 116.236L2413.18 114.246C2414.01 113.613 2415.15 113.565 2416.03 114.126L2414.69 116.236ZM2421.82 120.77L2422.76 123.084C2422.01 123.391 2421.16 123.314 2420.48 122.88L2421.82 120.77ZM2426.38 118.907L2425.44 116.592C2425.93 116.393 2426.47 116.353 2426.98 116.479L2426.38 118.907ZM2430.47 119.911L2432.61 121.199C2432.05 122.138 2430.94 122.6 2429.88 122.339L2430.47 119.911ZM2437.51 108.205L2435.37 106.917C2435.81 106.185 2436.59 105.728 2437.44 105.706C2438.3 105.684 2439.1 106.1 2439.58 106.809L2437.51 108.205ZM2440.08 112.016L2441.68 113.936C2441.13 114.389 2440.42 114.591 2439.72 114.491C2439.02 114.392 2438.4 114 2438 113.413L2440.08 112.016ZM2445.69 107.338L2444.08 105.418C2444.69 104.912 2445.5 104.722 2446.27 104.907C2447.04 105.092 2447.67 105.629 2447.98 106.356L2445.69 107.338ZM2450.73 119.137L2453.01 120.155C2452.6 121.063 2451.7 121.644 2450.71 121.636C2449.71 121.629 2448.82 121.033 2448.43 120.119L2450.73 119.137ZM2467.46 81.6302L2465.18 80.6115C2465.62 79.6097 2466.67 79.0164 2467.76 79.1483C2468.85 79.2803 2469.73 80.1068 2469.92 81.1864L2467.46 81.6302ZM2472.5 109.566L2473.59 111.816C2472.89 112.157 2472.06 112.149 2471.37 111.795C2470.67 111.44 2470.18 110.78 2470.04 110.01L2472.5 109.566ZM2478.59 106.615L2477.49 104.365C2478.7 103.778 2480.16 104.254 2480.79 105.443L2478.59 106.615ZM2486.19 120.949L2485.37 123.31C2484.77 123.102 2484.28 122.678 2483.98 122.12L2486.19 120.949ZM2496.37 124.487L2498.28 126.09C2497.62 126.888 2496.53 127.19 2495.54 126.849L2496.37 124.487ZM2501.41 118.456L2499.49 116.853C2499.95 116.302 2500.62 115.975 2501.34 115.957C2502.06 115.938 2502.75 116.23 2503.24 116.757L2501.41 118.456ZM2511.58 129.438L2513.24 131.306C2512.22 132.211 2510.67 132.136 2509.75 131.137L2511.58 129.438ZM2515.1 126.308L2513.44 124.44C2514.21 123.75 2515.33 123.611 2516.25 124.09L2515.1 126.308ZM2517.19 127.397L2519.26 128.793C2518.55 129.848 2517.16 130.201 2516.04 129.614L2517.19 127.397ZM2523.27 118.362L2521.2 116.966C2521.73 116.177 2522.67 115.758 2523.61 115.885C2524.55 116.012 2525.34 116.664 2525.64 117.565L2523.27 118.362ZM2527.84 131.931L2526.99 134.283C2526.27 134.025 2525.71 133.452 2525.47 132.728L2527.84 131.931ZM2537.92 135.555L2540.17 136.636C2539.62 137.792 2538.28 138.341 2537.07 137.907L2537.92 135.555ZM2540.48 130.204L2538.23 129.122C2538.62 128.311 2539.42 127.772 2540.31 127.71C2541.21 127.648 2542.07 128.073 2542.57 128.823L2540.48 130.204ZM2544 135.512L2546.39 136.266C2546.1 137.184 2545.3 137.854 2544.35 137.988C2543.4 138.122 2542.45 137.696 2541.92 136.893L2544 135.512ZM2552.66 108.154L2550.27 107.4C2550.6 106.358 2551.57 105.65 2552.67 105.654C2553.76 105.658 2554.72 106.373 2555.04 107.418L2552.66 108.154ZM2561.31 136.235L2561.05 138.722C2560.05 138.618 2559.21 137.929 2558.92 136.971L2561.31 136.235ZM2567.87 136.916L2568.87 139.209C2568.47 139.38 2568.04 139.447 2567.61 139.402L2567.87 136.916ZM2576.52 133.156L2575.53 130.863C2576.59 130.4 2577.83 130.731 2578.53 131.662L2576.52 133.156ZM2579.56 137.239L2580.47 139.569C2579.42 139.976 2578.23 139.634 2577.56 138.733L2579.56 137.239ZM2582.61 136.057L2581.7 133.726C2582.23 133.521 2582.81 133.501 2583.35 133.671L2582.61 136.057ZM2585.08 136.831L2585.25 139.325C2584.94 139.346 2584.63 139.309 2584.33 139.216L2585.08 136.831ZM2593.73 136.235L2593.56 133.741C2593.86 133.72 2594.16 133.754 2594.45 133.84L2593.73 136.235ZM2596.77 137.145L2598.06 139.29C2597.46 139.651 2596.73 139.742 2596.06 139.541L2596.77 137.145ZM2602.38 133.785L2601.1 131.641C2601.79 131.23 2602.63 131.172 2603.36 131.483L2602.38 133.785ZM2609.99 137.009L2611.32 139.13C2610.62 139.561 2609.77 139.629 2609.02 139.311L2609.99 137.009ZM2615.51 133.564L2614.18 131.444C2614.91 130.992 2615.81 130.94 2616.58 131.306L2615.51 133.564ZM2618.55 135.01L2620.88 135.902C2620.64 136.553 2620.13 137.071 2619.48 137.331C2618.83 137.59 2618.11 137.568 2617.48 137.268L2618.55 135.01ZM2624.16 120.311L2621.82 119.419C2622.07 118.771 2622.58 118.255 2623.22 117.994C2623.86 117.733 2624.58 117.751 2625.21 118.043L2624.16 120.311ZM2627.68 121.944L2628.68 124.235C2628.02 124.521 2627.27 124.513 2626.62 124.211L2627.68 121.944ZM2633.29 119.494L2635.61 120.413C2635.37 121.028 2634.89 121.521 2634.29 121.785L2633.29 119.494ZM2641.84 97.8611L2639.52 96.9415C2639.87 96.0594 2640.69 95.4507 2641.63 95.3701C2642.58 95.2896 2643.49 95.7509 2643.98 96.5613L2641.84 97.8611ZM2659.63 127.073L2661.55 128.671C2661.03 129.292 2660.25 129.626 2659.44 129.567C2658.64 129.508 2657.91 129.063 2657.49 128.373L2659.63 127.073ZM2677.41 105.662L2675.48 104.065C2676.16 103.248 2677.28 102.948 2678.28 103.319L2677.41 105.662ZM2680.45 106.793L2682.3 108.474C2681.61 109.23 2680.54 109.493 2679.58 109.136L2680.45 106.793ZM2683.49 103.442L2681.64 101.761C2682.22 101.125 2683.08 100.83 2683.93 100.98C2684.77 101.13 2685.48 101.704 2685.81 102.5L2683.49 103.442ZM2695.19 132.203L2693.28 133.814C2693.11 133.614 2692.97 133.388 2692.87 133.145L2695.19 132.203ZM2702.22 140.548L2704.06 142.24C2703.58 142.769 2702.89 143.063 2702.17 143.048C2701.45 143.032 2700.78 142.709 2700.31 142.16L2702.22 140.548ZM2705.27 137.239L2703.43 135.547C2703.92 135.014 2704.61 134.72 2705.34 134.74C2706.06 134.76 2706.74 135.094 2707.2 135.654L2705.27 137.239ZM2710.4 143.5L2711.22 145.861C2710.23 146.206 2709.13 145.896 2708.47 145.085L2710.4 143.5ZM2714.96 141.909L2714.14 139.549C2714.57 139.4 2715.02 139.37 2715.47 139.46L2714.96 141.909ZM2718.96 142.726L2720.2 144.895C2719.67 145.198 2719.05 145.297 2718.46 145.175L2718.96 142.726ZM2725.61 138.915L2728.08 139.355C2727.94 140.083 2727.5 140.717 2726.86 141.084L2725.61 138.915ZM2734.65 88.4186L2732.19 87.9784C2732.38 86.8722 2733.3 86.034 2734.41 85.9294C2735.53 85.8249 2736.58 86.4797 2736.98 87.5301L2734.65 88.4186ZM2746.91 120.676L2748.1 122.879C2747.46 123.219 2746.71 123.27 2746.04 123.018C2745.36 122.767 2744.83 122.237 2744.58 121.565L2746.91 120.676ZM2751.48 118.226L2750.29 116.024C2751.24 115.514 2752.41 115.67 2753.2 116.412L2751.48 118.226ZM2759.56 125.891L2761.77 127.059C2761.4 127.75 2760.74 128.231 2759.96 128.358C2759.19 128.485 2758.41 128.243 2757.84 127.705L2759.56 125.891ZM2774.2 98.1759L2771.99 97.008C2772.39 96.2544 2773.14 95.7556 2773.99 95.6846C2774.84 95.6135 2775.67 95.9801 2776.19 96.6571L2774.2 98.1759ZM2789.99 118.813L2791.95 120.361C2791.47 120.967 2790.74 121.319 2789.97 121.313C2789.2 121.308 2788.47 120.945 2788 120.332L2789.99 118.813ZM2794.74 112.782L2792.78 111.234C2793.54 110.269 2794.89 110 2795.96 110.601L2794.74 112.782ZM2799.11 115.232L2801.22 116.583C2800.5 117.695 2799.05 118.059 2797.89 117.413L2799.11 115.232ZM2810.24 97.9037L2808.14 96.553C2808.65 95.7576 2809.56 95.3183 2810.5 95.4175C2811.44 95.5167 2812.25 96.1376 2812.58 97.0221L2810.24 97.9037ZM2820.89 126.163L2822.27 128.247C2821.64 128.667 2820.84 128.776 2820.12 128.542C2819.4 128.308 2818.82 127.757 2818.55 127.045L2820.89 126.163ZM2826.02 122.76L2824.64 120.677C2825.28 120.253 2826.08 120.146 2826.81 120.387C2827.54 120.627 2828.11 121.188 2828.37 121.909L2826.02 122.76ZM2830.02 133.785L2831.83 135.507C2831.23 136.135 2830.35 136.41 2829.51 136.232C2828.66 136.055 2827.96 135.451 2827.67 134.637L2830.02 133.785ZM2834.11 129.481L2832.29 127.759C2832.83 127.194 2833.6 126.911 2834.38 126.995C2835.15 127.08 2835.84 127.521 2836.25 128.188L2834.11 129.481ZM2837.15 134.517L2839.08 136.107C2838.56 136.733 2837.77 137.069 2836.97 137.01C2836.16 136.951 2835.43 136.504 2835.01 135.81L2837.15 134.517ZM2839.72 131.403L2837.79 129.813C2838.58 128.856 2839.95 128.622 2841.01 129.263L2839.72 131.403ZM2842.76 133.241L2843.35 135.669C2842.71 135.826 2842.03 135.722 2841.47 135.381L2842.76 133.241ZM2846.28 132.382L2848.69 133.034C2848.45 133.913 2847.75 134.594 2846.87 134.81L2846.28 132.382ZM2853.31 106.342L2850.9 105.69C2851.17 104.678 2852.05 103.944 2853.09 103.852C2854.14 103.76 2855.13 104.33 2855.57 105.279L2853.31 106.342ZM2863.49 127.984L2864.89 130.055C2864.28 130.464 2863.53 130.588 2862.82 130.394C2862.12 130.2 2861.53 129.708 2861.22 129.047L2863.49 127.984ZM2889.82 110.196L2892.32 110.196C2892.32 111.027 2891.91 111.803 2891.22 112.268L2889.82 110.196ZM2889.82 105.39L2887.32 105.39C2887.32 104.631 2887.67 103.913 2888.26 103.438C2888.85 102.964 2889.63 102.784 2890.37 102.95L2889.82 105.39ZM2892.87 106.07L2895.37 106.07C2895.37 106.829 2895.02 107.547 2894.43 108.021C2893.84 108.496 2893.06 108.676 2892.32 108.51L2892.87 106.07ZM2892.87 104.071L2890.37 104.071C2890.37 103.258 2890.76 102.495 2891.43 102.027C2892.09 101.559 2892.94 101.443 2893.71 101.717L2892.87 104.071ZM2895.91 105.16L2898.37 105.579C2898.25 106.308 2897.81 106.944 2897.17 107.318C2896.53 107.691 2895.76 107.763 2895.07 107.514L2895.91 105.16ZM2900 81.1198L2897.53 80.7006C2897.73 79.5303 2898.73 78.6613 2899.91 78.6212C2901.1 78.5811 2902.15 79.3809 2902.43 80.5352L2900 81.1198ZM2908.65 117.095L2910.43 118.857C2909.79 119.5 2908.85 119.747 2907.98 119.502C2907.1 119.258 2906.43 118.561 2906.22 117.68L2908.65 117.095ZM2914.74 110.97L2912.96 109.208C2913.67 108.493 2914.74 108.275 2915.68 108.654L2914.74 110.97ZM2919.3 112.825L2920.96 114.698C2920.24 115.327 2919.24 115.498 2918.36 115.141L2919.3 112.825ZM2928.9 104.343L2927.25 102.469C2928.08 101.736 2929.29 101.637 2930.23 102.224L2928.9 104.343ZM2931.95 106.249L2933.92 107.78C2933.14 108.795 2931.71 109.049 2930.62 108.368L2931.95 106.249ZM2938.03 98.3971L2936.06 96.8656C2936.79 95.9206 2938.09 95.6265 2939.16 96.1636L2938.03 98.3971ZM2941.55 100.166L2943.52 101.705C2942.79 102.645 2941.49 102.936 2940.43 102.4L2941.55 100.166ZM2952.77 85.79L2950.8 84.2519C2951.33 83.5753 2952.17 83.2168 2953.02 83.3025C2953.87 83.3882 2954.62 83.906 2955.01 84.674L2952.77 85.79ZM2958.86 97.9887L2957.41 100.026C2957.07 99.7885 2956.8 99.472 2956.62 99.1047L2958.86 97.9887ZM2962.37 100.49L2964.49 101.824C2964.12 102.405 2963.53 102.809 2962.86 102.942C2962.18 103.075 2961.49 102.925 2960.93 102.527L2962.37 100.49ZM2971.03 86.7853L2968.91 85.4506C2969.4 84.676 2970.28 84.2309 2971.19 84.2906C2972.1 84.3503 2972.91 84.9051 2973.3 85.7367L2971.03 86.7853ZM2973.5 92.1361L2975.07 94.0833C2974.47 94.5661 2973.68 94.7458 2972.93 94.5702C2972.18 94.3947 2971.55 93.8835 2971.23 93.1846L2973.5 92.1361ZM2978.06 88.4611L2976.5 86.5139C2977.4 85.7856 2978.69 85.776 2979.6 86.4908L2978.06 88.4611ZM2987.19 95.5898L2986.31 97.931C2986.08 97.8418 2985.85 97.7168 2985.65 97.5602L2987.19 95.5898ZM2993.85 98.0823L2994.96 100.323C2994.34 100.63 2993.62 100.666 2992.97 100.424L2993.85 98.0823ZM2998.89 95.5898L2997.78 93.3489C2998.86 92.8149 3000.17 93.1268 3000.89 94.091L2998.89 95.5898ZM3012.1 113.233L3012.49 115.703C3011.58 115.846 3010.66 115.472 3010.1 114.732L3012.1 113.233ZM3017.33 125.75C3009.97 125.75 3004 119.78 3004 112.416C3004 105.052 3009.97 99.0829 3017.33 99.0829C3024.7 99.0829 3030.67 105.052 3030.67 112.416C3030.67 119.78 3024.7 125.75 3017.33 125.75ZM13.333 112.067L13.0076 109.589L17.2864 109.027L17.6116 111.506L17.937 113.985L13.6582 114.546L13.333 112.067ZM17.6116 111.506L18.4922 109.166L28.666 112.994L27.7856 115.334L26.9053 117.674L16.7312 113.846L17.6116 111.506ZM27.7856 115.334L28.127 112.857L45.9077 115.307L45.5664 117.784L45.2251 120.26L27.4443 117.811L27.7856 115.334ZM45.5664 117.784L43.7473 116.069L54.3967 104.772L56.2158 106.487L58.0349 108.202L47.3855 119.499L45.5664 117.784ZM56.2158 106.487L58.2061 104.974L65.2424 114.229L63.2522 115.742L61.2622 117.255L54.2256 108L56.2158 106.487ZM63.2522 115.742L62.8662 113.272L73.04 111.681L73.4263 114.151L73.8125 116.621L63.6384 118.212L63.2522 115.742ZM73.4263 114.151L73.7192 111.669L80.28 112.443L79.9871 114.926L79.6941 117.408L73.1333 116.634L73.4263 114.151ZM79.9871 114.926L79.6658 112.446L88.7942 111.264L89.1155 113.743L89.4365 116.222L80.3081 117.405L79.9871 114.926ZM89.1155 113.743L89.4155 111.261L98.0681 112.308L97.7681 114.789L97.4678 117.271L88.8152 116.225L89.1155 113.743ZM97.7681 114.789L96.2671 112.79L127.169 89.5922L128.67 91.5915L130.171 93.5909L99.2688 116.789L97.7681 114.789ZM128.67 91.5915L130.33 89.7222L132.898 92.002L131.238 93.8713L129.578 95.7407L127.01 93.4609L128.67 91.5915ZM131.238 93.8713L129.592 91.9891L134.156 87.9994L135.802 89.8816L137.447 91.7639L132.883 95.7535L131.238 93.8713ZM135.802 89.8816L137.755 88.3218L140.323 91.5373L138.369 93.0972L136.415 94.6571L133.848 91.4415L135.802 89.8816ZM138.369 93.0972L136.717 91.2212L139.189 89.0435L140.841 90.9195L142.494 92.7955L140.021 94.9732L138.369 93.0972ZM140.841 90.9195L142.646 89.1895L153.866 100.895L152.061 102.625L150.256 104.355L139.036 92.6494L140.841 90.9195ZM152.061 102.625L150.056 101.131L156.142 92.9645L158.146 94.4583L160.151 95.9521L154.066 104.119L152.061 102.625ZM158.146 94.4583L159.984 92.7631L162.456 95.4427L160.619 97.1379L158.781 98.8332L156.309 96.1535L158.146 94.4583ZM160.619 97.1379L158.544 95.7422L172.712 74.688L174.786 76.0837L176.86 77.4794L162.693 98.5336L160.619 97.1379ZM174.786 76.0837L177.063 75.0525L180.106 81.7729L177.829 82.804L175.551 83.8351L172.509 77.1148L174.786 76.0837ZM177.829 82.804L175.475 81.9614L180.61 67.6189L182.964 68.4616L185.317 69.3042L180.182 83.6467L177.829 82.804ZM182.964 68.4616L185.041 67.0703L188.083 71.6129L186.006 73.0042L183.929 74.3955L180.886 69.8529L182.964 68.4616ZM186.006 73.0042L183.685 72.0761L185.682 67.0826L188.003 68.0107L190.324 68.9389L188.328 73.9323L186.006 73.0042ZM188.003 68.0107L190.312 67.0531L198.965 87.9203L196.656 88.8779L194.346 89.8354L185.694 68.9683L188.003 68.0107ZM196.656 88.8779L194.533 87.5574L203.661 72.8832L205.784 74.2037L207.906 75.5242L198.778 90.1984L196.656 88.8779ZM205.784 74.2037L204.269 72.2145L209.309 68.378L210.823 70.3671L212.337 72.3563L207.298 76.1928L205.784 74.2037ZM210.823 70.3671L208.566 69.2926L211.133 63.8993L213.39 64.9738L215.647 66.0483L213.08 71.4416L210.823 70.3671ZM213.39 64.9738L214.403 62.6881L218.397 64.4575L217.384 66.7432L216.371 69.0289L212.378 67.2595L213.39 64.9738ZM217.384 66.7432L215.26 65.4245L217.827 61.2902L219.951 62.6089L222.075 63.9276L219.508 68.0619L217.384 66.7432ZM219.951 62.6089L222.275 61.6878L227.885 75.8431L225.561 76.7642L223.237 77.6853L217.627 63.5301L219.951 62.6089ZM225.561 76.7642L223.41 75.4904L227.974 67.7832L230.125 69.0571L232.276 70.3309L227.712 78.038L225.561 76.7642ZM230.125 69.0571L232.288 67.8033L237.993 77.6457L235.83 78.8994L233.667 80.1531L227.962 70.3108L230.125 69.0571ZM235.83 78.8994L234.477 76.7974L238.851 73.9816L240.204 76.0837L241.557 78.1857L237.184 81.0014L235.83 78.8994ZM240.204 76.0837L242.582 75.3131L245.625 84.7046L243.247 85.4751L240.869 86.2457L237.826 76.8542L240.204 76.0837ZM243.247 85.4751L241.02 84.3397L246.155 74.2676L248.382 75.4031L250.609 76.5386L245.474 86.6106L243.247 85.4751ZM248.382 75.4031L250.399 73.9266L254.963 80.1621L252.945 81.6386L250.928 83.1151L246.364 76.8796L248.382 75.4031ZM252.945 81.6386L251.812 79.4104L260.94 74.7657L262.074 76.9939L263.208 79.222L254.079 83.8667L252.945 81.6386ZM262.074 76.9939L262.492 74.5291L267.056 75.3032L266.638 77.768L266.22 80.2328L261.656 79.4587L262.074 76.9939ZM266.638 77.768L265.242 75.6937L279.885 65.8429L281.281 67.9172L282.676 69.9915L268.033 79.8423L266.638 77.768ZM281.281 67.9172L282.133 65.5671L287.268 67.4301L286.415 69.7801L285.563 72.1302L280.428 70.2672L281.281 67.9172ZM286.415 69.7801L285.868 67.3409L290.907 66.2095L291.455 68.6487L292.002 71.088L286.963 72.2194L286.415 69.7801ZM291.455 68.6487L293.592 67.3516L298.631 75.6542L296.494 76.9514L294.357 78.2485L289.318 69.9459L291.455 68.6487ZM296.494 76.9514L295.749 74.5649L299.838 73.2889L300.583 75.6753L301.328 78.0618L297.239 79.3378L296.494 76.9514ZM300.583 75.6753L302.548 74.1306L305.115 77.3972L303.15 78.9419L301.184 80.4867L298.617 77.2201L300.583 75.6753ZM303.15 78.9419L301.893 76.7808L304.936 75.0114L306.193 77.1725L307.449 79.3337L304.407 81.1031L303.15 78.9419ZM306.193 77.1725L306.841 74.758L314.448 76.7996L313.8 79.2142L313.152 81.6287L305.544 79.5871L306.193 77.1725ZM313.8 79.2142L313.232 76.7793L318.272 75.6054L318.839 78.0402L319.406 80.475L314.367 81.649L313.8 79.2142ZM318.839 78.0402L316.678 76.783L328.374 56.6815L330.534 57.9387L332.695 59.1959L321 79.2974L318.839 78.0402ZM330.534 57.9387L332.531 56.4347L342.135 69.1864L340.138 70.6904L338.141 72.1944L328.537 59.4427L330.534 57.9387ZM340.138 70.6904L338.564 68.7477L349.214 60.1218L350.787 62.0645L352.361 64.0072L341.711 72.633L340.138 70.6904ZM350.787 62.0645L352.527 60.2687L359.088 66.6233L357.348 68.4191L355.609 70.2148L349.048 63.8603L350.787 62.0645ZM357.348 68.4191L355.858 66.4116L360.993 62.6006L362.483 64.608L363.973 66.6155L358.838 70.4265L357.348 68.4191ZM362.483 64.608L363.822 62.4966L369.336 65.9929L367.998 68.1043L366.659 70.2157L361.144 66.7195L362.483 64.608ZM367.998 68.1043L369.391 66.0283L375.476 70.1116L374.083 72.1876L372.69 74.2635L366.605 70.1803L367.998 68.1043ZM374.083 72.1876L372.776 70.0566L381.428 64.7484L382.736 66.8793L384.043 69.0103L375.391 74.3185L374.083 72.1876ZM382.736 66.8793L384.574 65.1853L391.135 72.3054L389.296 73.9995L387.458 75.6936L380.897 68.5734L382.736 66.8793ZM389.296 73.9995L389.904 71.5744L397.511 73.48L396.903 75.905L396.296 78.3301L388.689 76.4246L389.296 73.9995ZM396.903 75.905L396.032 73.5615L401.643 71.4774L402.513 73.8209L403.384 76.1644L397.774 78.2485L396.903 75.905ZM402.513 73.8209L403.711 71.6267L408.276 74.1192L407.077 76.3134L405.879 78.5075L401.315 76.015L402.513 73.8209ZM407.077 76.3134L406.458 73.8914L410.546 72.8451L411.166 75.267L411.786 77.689L407.697 78.7353L407.077 76.3134ZM411.166 75.267L412.348 73.0643L418.434 76.3309L417.251 78.5336L416.069 80.7363L409.983 77.4697L411.166 75.267ZM417.251 78.5336L418.405 76.3155L426.962 80.7645L425.809 82.9827L424.656 85.2008L416.098 80.7518L417.251 78.5336ZM425.809 82.9827L426.573 80.6024L436.747 83.869L435.983 86.2493L435.219 88.6296L425.045 85.363L425.809 82.9827ZM435.983 86.2493L435.564 83.7846L449.732 81.3772L450.151 83.8419L450.569 86.3065L436.402 88.7139L435.983 86.2493ZM450.151 83.8419L449.31 81.4873L467.091 75.1413L467.931 77.4958L468.772 79.8503L450.991 86.1964L450.151 83.8419ZM467.931 77.4958L466.216 75.677L474.298 68.055L476.013 69.8737L477.729 71.6925L469.647 79.3146L467.931 77.4958ZM476.013 69.8737L478.09 68.4823L481.704 73.8756L479.627 75.267L477.55 76.6585L473.937 71.2652L476.013 69.8737ZM479.627 75.267L479.017 72.8425L484.057 71.575L484.666 73.9995L485.276 76.424L480.236 77.6915L479.627 75.267ZM484.666 73.9995L486.514 72.3153L489.081 75.131L487.233 76.8153L485.386 78.4995L482.819 75.6837L484.666 73.9995ZM487.233 76.8153L486.132 74.571L489.65 72.8442L490.751 75.0884L491.853 77.3326L488.335 79.0595L487.233 76.8153ZM490.751 75.0884L492.107 72.9881L495.625 75.2594L494.27 77.3597L492.913 79.46L489.395 77.1887L490.751 75.0884ZM494.27 77.3597L493.01 75.2L495.578 73.7028L496.837 75.8625L498.096 78.0222L495.529 79.5194L494.27 77.3597ZM496.837 75.8625L498.545 74.0366L505.676 80.7059L503.968 82.5318L502.261 84.3577L495.129 77.6884L496.837 75.8625ZM503.968 82.5318L502.273 80.6942L507.788 75.6071L509.483 77.4448L511.178 79.2824L505.663 84.3694L503.968 82.5318ZM509.483 77.4448L511.185 75.6134L518.316 82.2402L516.615 84.0715L514.913 85.9029L507.781 79.2761L509.483 77.4448ZM516.615 84.0715L515.906 81.6741L534.637 76.1362L535.346 78.5336L536.055 80.931L517.323 86.469L516.615 84.0715ZM535.346 78.5336L536.723 76.4468L548.418 84.1625L547.042 86.2493L545.665 88.3361L533.969 80.6204L535.346 78.5336ZM547.042 86.2493L545.348 84.4104L553.43 76.9669L555.123 78.8058L556.817 80.6447L548.735 88.0882L547.042 86.2493ZM555.123 78.8058L556.516 76.7298L559.559 78.7715L558.166 80.8475L556.773 82.9235L553.73 80.8819L555.123 78.8058ZM558.166 80.8475L556.432 79.0472L560.996 74.6492L562.73 76.4495L564.465 78.2497L559.901 82.6477L558.166 80.8475ZM562.73 76.4495L563.438 74.0516L574.657 77.3607L573.95 79.7586L573.243 82.1565L562.023 78.8473L562.73 76.4495ZM573.95 79.7586L572.265 77.9122L578.35 72.3573L580.036 74.2037L581.721 76.0501L575.636 81.605L573.95 79.7586ZM580.036 74.2037L577.624 73.545L586.182 42.2145L588.593 42.8732L591.005 43.5319L582.448 74.8624L580.036 74.2037ZM588.593 42.8732L590.38 41.1244L594.469 45.3012L592.682 47.05L590.896 48.7989L586.807 44.622L588.593 42.8732ZM592.682 47.05L590.302 46.2857L592.299 40.0673L594.679 40.8316L597.059 41.5959L595.062 47.8144L592.682 47.05ZM594.679 40.8316L595.896 38.6478L600.46 41.1913L599.243 43.3751L598.026 45.5589L593.462 43.0153L594.679 40.8316ZM599.243 43.3751L597.8 41.3332L602.365 38.1091L603.807 40.151L605.249 42.193L600.685 45.417L599.243 43.3751ZM603.807 40.151L606.19 39.3942L609.232 48.9728L606.85 49.7297L604.467 50.4865L601.424 40.9079L603.807 40.151ZM606.85 49.7297L604.953 48.101L610.563 41.5678L612.459 43.1965L614.356 44.8251L608.746 51.3583L606.85 49.7297ZM612.459 43.1965L613.99 41.2199L617.033 43.5762L615.502 45.5529L613.971 47.5295L610.929 45.1731L612.459 43.1965ZM615.502 45.5529L613.177 44.6352L620.213 26.8049L622.538 27.7226L624.864 28.6403L617.828 46.4705L615.502 45.5529ZM622.538 27.7226L624.428 26.086L628.517 30.8073L626.627 32.4439L624.737 34.0805L620.648 29.3593L622.538 27.7226ZM626.627 32.4439L624.821 30.7154L629.86 25.4497L631.667 27.1782L633.473 28.9067L628.433 34.1724L626.627 32.4439ZM631.667 27.1782L633.998 26.2767L647.785 61.9371L645.454 62.8386L643.122 63.7401L629.335 28.0797L631.667 27.1782ZM645.454 62.8386L643.281 61.6029L646.323 56.2521L648.496 57.4879L650.669 58.7236L647.627 64.0744L645.454 62.8386ZM648.496 57.4879L650.748 56.4023L667.958 92.1052L665.707 93.1908L663.455 94.2764L646.244 58.5734L648.496 57.4879ZM665.707 93.1908L663.679 91.7286L689.066 56.5191L691.094 57.9813L693.122 59.4434L667.734 94.653L665.707 93.1908ZM691.094 57.9813L693.223 56.6696L700.829 69.013L698.701 70.3246L696.573 71.6362L688.966 59.2929L691.094 57.9813ZM698.701 70.3246L696.435 69.2681L706.039 48.6731L708.304 49.7297L710.57 50.7862L700.967 71.3811L698.701 70.3246ZM708.304 49.7297L709.616 47.6014L712.183 49.1837L710.872 51.3119L709.56 53.4402L706.993 51.8579L708.304 49.7297ZM710.872 51.3119L708.514 50.4795L711.557 41.8622L713.915 42.6946L716.272 43.527L713.229 52.1443L710.872 51.3119ZM713.915 42.6946L714.662 40.3088L717.704 41.2616L716.957 43.6473L716.21 46.0331L713.167 45.0803L713.915 42.6946ZM716.957 43.6473L714.856 42.2919L727.503 22.6923L729.603 24.0477L731.704 25.4031L719.058 45.0027L716.957 43.6473ZM729.603 24.0477L731.752 22.7694L735.745 29.4812L733.597 30.7596L731.448 32.0379L727.455 25.326L729.603 24.0477ZM733.597 30.7596L731.988 28.8458L735.602 25.8088L737.21 27.7226L738.819 29.6364L735.206 32.6734L733.597 30.7596ZM737.21 27.7226L739.577 26.9171L742.62 35.8578L740.253 36.6633L737.886 37.4687L734.844 28.5281L737.21 27.7226ZM740.253 36.6633L737.978 35.6278L747.105 15.5688L749.381 16.6043L751.656 17.6397L742.529 37.6987L740.253 36.6633ZM749.381 16.6043L751.668 15.5951L756.232 25.9393L753.945 26.9485L751.658 27.9577L747.094 17.6135L749.381 16.6043ZM753.945 26.9485L751.806 25.6541L754.849 20.6266L756.988 21.921L759.126 23.2154L756.084 28.2429L753.945 26.9485ZM756.988 21.921L759.38 21.1946L763.374 34.3461L760.981 35.0725L758.589 35.7989L754.596 22.6474L756.988 21.921ZM760.981 35.0725L759.324 33.2006L762.938 30.002L764.594 31.8739L766.252 33.7459L762.638 36.9444L760.981 35.0725ZM764.594 31.8739L766.293 30.0393L768.765 32.3277L767.067 34.1623L765.368 35.9969L762.896 33.7086L764.594 31.8739ZM767.067 34.1623L764.997 32.7595L769.086 26.7281L771.155 28.131L773.225 29.5338L769.136 35.5651L767.067 34.1623ZM771.155 28.131L773.575 27.5031L779.661 50.9563L777.241 51.5842L774.821 52.2121L768.735 28.7589L771.155 28.131ZM777.241 51.5842L776.868 49.1121L780.481 48.5676L780.854 51.0397L781.226 53.5118L777.613 54.0562L777.241 51.5842ZM780.854 51.0397L779.036 49.3235L790.256 37.4395L792.074 39.1557L793.892 40.872L782.672 52.756L780.854 51.0397ZM792.074 39.1557L790.656 37.0963L795.601 33.6936L797.018 35.753L798.436 37.8125L793.491 41.2152L792.074 39.1557ZM797.018 35.753L796.451 33.3183L800.539 32.3655L801.107 34.8003L801.674 37.2351L797.586 38.1878L797.018 35.753ZM801.107 34.8003L798.735 34.0095L802.729 22.032L805.1 22.8227L807.472 23.6135L803.479 35.591L801.107 34.8003ZM805.1 22.8227L807.317 21.6664L812.927 32.4189L810.71 33.5753L808.494 34.7317L802.884 23.9791L805.1 22.8227ZM810.71 33.5753L808.307 32.8876L815.913 6.30386L818.317 6.99162L820.72 7.67939L813.114 34.2631L810.71 33.5753ZM818.317 6.99162L819.127 4.62649L825.212 6.71064L824.402 9.07579L823.593 11.4409L817.507 9.35676L818.317 6.99162ZM824.402 9.07579L825.938 7.10324L828.506 9.10232L826.97 11.0749L825.434 13.0474L822.866 11.0483L824.402 9.07579ZM826.97 11.0749L824.704 10.0194L828.697 1.44458L830.963 2.50004L833.23 3.55552L829.236 12.1304L826.97 11.0749ZM830.963 2.50004L833.357 1.77801L849.616 55.677L847.223 56.399L844.829 57.121L828.57 3.22207L830.963 2.50004ZM847.223 56.399L848.761 54.4283L857.414 61.1827L855.875 63.1534L854.337 65.124L845.685 58.3696L847.223 56.399ZM855.875 63.1534L854.292 61.2183L864.942 52.5074L866.525 54.4424L868.108 56.3775L857.458 65.0885L855.875 63.1534ZM866.525 54.4424L868.113 52.5118L879.809 62.1329L878.22 64.0636L876.632 65.9943L864.937 56.3731L866.525 54.4424ZM878.22 64.0636L876.5 62.2492L883.537 55.5799L885.256 57.3943L886.976 59.2087L879.94 65.878L878.22 64.0636ZM885.256 57.3943L883.097 56.135L888.707 46.5138L890.866 47.7731L893.026 49.0324L887.416 58.6536L885.256 57.3943ZM890.866 47.7731L888.473 47.0526L893.987 28.729L896.381 29.4495L898.775 30.17L893.261 48.4936L890.866 47.7731ZM896.381 29.4495L898.675 28.4554L911.417 57.8548L909.123 58.849L906.829 59.8431L894.087 30.4436L896.381 29.4495ZM909.123 58.849L908.076 56.5786L913.686 53.9925L914.733 56.2629L915.779 58.5333L910.169 61.1193L909.123 58.849ZM914.733 56.2629L912.517 55.1045L925.639 30.0095L927.854 31.1679L930.07 32.3263L916.948 57.4213L914.733 56.2629ZM927.854 31.1679L929.79 29.5859L942.436 45.0597L940.5 46.6417L938.565 48.2237L925.918 32.7499L927.854 31.1679ZM940.5 46.6417L940.959 44.1841L946.569 45.2304L946.111 47.6881L945.652 50.1457L940.042 49.0994L940.5 46.6417ZM946.111 47.6881L944.647 45.6611L948.736 42.7093L950.199 44.7362L951.663 46.7631L947.574 49.715L946.111 47.6881ZM950.199 44.7362L952.192 43.2267L960.75 54.5237L958.757 56.0332L956.764 57.5428L948.206 46.2458L950.199 44.7362ZM958.757 56.0332L960.483 54.2246L965.617 59.1245L963.891 60.9331L962.165 62.7417L957.031 57.8418L958.757 56.0332ZM963.891 60.9331L963.06 58.5753L977.228 53.5818L978.059 55.9396L978.89 58.2975L964.722 63.2909L963.891 60.9331ZM978.059 55.9396L976.111 54.3721L981.151 48.1111L983.098 49.6786L985.046 51.2462L980.006 57.5072L978.059 55.9396ZM983.098 49.6786L980.838 48.61L995.576 17.4411L997.836 18.5098L1000.1 19.5785L985.358 50.7473L983.098 49.6786ZM997.836 18.5098L1000.11 17.4687L1020.46 61.8911L1018.18 62.9322L1015.91 63.9733L995.563 19.5509L997.836 18.5098ZM1018.18 62.9322L1020.27 61.5481L1028.35 73.7042L1026.27 75.0884L1024.18 76.4726L1016.1 64.3164L1018.18 62.9322ZM1026.27 75.0884L1023.89 74.3168L1037.58 32.1231L1039.96 32.8948L1042.34 33.6664L1028.64 75.8601L1026.27 75.0884ZM1039.96 32.8948L1042.23 31.8418L1049.26 46.9923L1046.99 48.0454L1044.73 49.0984L1037.69 33.9478L1039.96 32.8948ZM1046.99 48.0454L1045.13 46.3777L1053.79 36.714L1055.65 38.3816L1057.51 40.0493L1048.86 49.713L1046.99 48.0454ZM1055.65 38.3816L1057.01 36.2864L1063.57 40.5568L1062.21 42.652L1060.84 44.7473L1054.28 40.4769L1055.65 38.3816ZM1062.21 42.652L1061.16 40.3844L1064.2 38.9723L1065.25 41.2399L1066.3 43.5076L1063.26 44.9197L1062.21 42.652ZM1065.25 41.2399L1067.19 39.6586L1070.23 43.3846L1068.29 44.9659L1066.36 46.5472L1063.31 42.8212L1065.25 41.2399ZM1068.29 44.9659L1069.37 42.7096L1079.07 47.3373L1077.99 49.5936L1076.92 51.8499L1067.22 47.2222L1068.29 44.9659ZM1077.99 49.5936L1076.42 47.6473L1084.98 40.7483L1086.55 42.6946L1088.12 44.6409L1079.56 51.5399L1077.99 49.5936ZM1086.55 42.6946L1087.8 40.529L1091.41 42.6132L1090.16 44.7788L1088.91 46.9443L1085.3 44.8602L1086.55 42.6946ZM1090.16 44.7788L1088.61 42.8206L1098.21 35.1985L1099.77 37.1567L1101.32 39.1149L1091.72 46.7369L1090.16 44.7788ZM1099.77 37.1567L1101.04 35.0022L1107.6 38.8643L1106.33 41.0188L1105.06 43.1732L1098.5 39.3111L1099.77 37.1567ZM1106.33 41.0188L1104.2 39.7071L1123.69 8.07888L1125.82 9.39053L1127.95 10.7022L1108.46 42.3304L1106.33 41.0188ZM1125.82 9.39053L1128.13 8.42928L1143.15 44.498L1140.84 45.4593L1138.54 46.4205L1123.51 10.3518L1125.82 9.39053ZM1140.84 45.4593L1140.04 43.0931L1145.08 41.3747L1145.88 43.7409L1146.69 46.1071L1141.65 47.8255L1140.84 45.4593ZM1145.88 43.7409L1148.38 43.7409L1148.38 46.5482L1145.88 46.5482L1143.38 46.5482L1143.38 43.7409L1145.88 43.7409ZM1145.88 46.5482L1145.57 44.0679L1152.7 43.1662L1153.01 45.6464L1153.33 48.1267L1146.2 49.0284L1145.88 46.5482ZM1153.01 45.6464L1155.51 45.6464L1155.51 46.7353L1153.01 46.7353L1150.51 46.7353L1150.51 45.6464L1153.01 45.6464ZM1153.01 46.7353L1154.73 44.9196L1161.29 51.1296L1159.57 52.9453L1157.86 54.7609L1151.3 48.551L1153.01 46.7353ZM1159.57 52.9453L1160.56 50.6491L1171.21 55.2342L1170.22 57.5304L1169.24 59.8266L1158.59 55.2415L1159.57 52.9453ZM1170.22 57.5304L1167.82 56.8439L1173.43 37.2017L1175.83 37.8883L1178.24 38.5748L1172.63 58.217L1170.22 57.5304ZM1175.83 37.8883L1178.15 36.9574L1185.76 55.919L1183.44 56.8499L1181.12 57.7807L1173.51 38.8191L1175.83 37.8883ZM1183.44 56.8499L1181.86 54.9115L1186.43 51.1941L1188.01 53.1324L1189.58 55.0708L1185.02 58.7882L1183.44 56.8499ZM1188.01 53.1324L1190.23 51.9858L1196.31 63.7762L1194.09 64.9228L1191.87 66.0694L1185.78 54.279L1188.01 53.1324ZM1194.09 64.9228L1193.2 62.586L1199.29 60.2722L1200.18 62.609L1201.06 64.9458L1194.98 67.2596L1194.09 64.9228ZM1200.18 62.609L1201.79 60.6974L1211.96 69.2722L1210.35 71.1838L1208.74 73.0954L1198.56 64.5206L1200.18 62.609ZM1210.35 71.1838L1208.14 70.0232L1215.74 55.5106L1217.96 56.6712L1220.17 57.8318L1212.56 72.3444L1210.35 71.1838ZM1217.96 56.6712L1220.32 55.849L1225.36 70.3191L1223 71.1413L1220.64 71.9635L1215.6 57.4934L1217.96 56.6712ZM1223 71.1413L1221.03 69.5941L1224.08 65.732L1226.04 67.2792L1228 68.8264L1224.96 72.6885L1223 71.1413ZM1226.04 67.2792L1228.4 66.4548L1231.92 76.5268L1229.56 77.3512L1227.2 78.1756L1223.68 68.1036L1226.04 67.2792ZM1229.56 77.3512L1227.24 76.4045L1240.46 44.1042L1242.77 45.051L1245.09 45.9977L1231.87 78.298L1229.56 77.3512ZM1242.77 45.051L1244.74 43.5028L1250.82 51.2184L1248.86 52.7666L1246.9 54.3148L1240.81 46.5992L1242.77 45.051ZM1248.86 52.7666L1246.85 51.2794L1251.41 45.112L1253.42 46.5992L1255.43 48.0864L1250.87 54.2538L1248.86 52.7666ZM1253.42 46.5992L1255.74 45.6524L1260.3 56.8047L1257.99 57.7516L1255.67 58.6985L1251.11 47.5461L1253.42 46.5992ZM1257.99 57.7516L1259.57 55.8159L1265.18 60.4011L1263.6 62.3368L1262.02 64.2725L1256.41 59.6873L1257.99 57.7516ZM1263.6 62.3368L1262.78 59.9758L1266.29 58.7508L1267.12 61.1118L1267.94 63.4727L1264.42 64.6977L1263.6 62.3368ZM1267.12 61.1118L1269.3 59.8894L1275.86 71.5948L1273.68 72.8171L1271.5 74.0394L1264.93 62.3341L1267.12 61.1118ZM1273.68 72.8171L1275.02 70.7092L1283.2 75.9239L1281.85 78.0318L1280.51 80.1396L1272.33 74.925L1273.68 72.8171ZM1281.85 78.0318L1282.56 75.634L1296.25 79.6747L1295.55 82.0725L1294.84 84.4703L1281.15 80.4295L1281.85 78.0318ZM1295.55 82.0725L1293.84 80.2426L1297.84 76.5251L1299.54 78.355L1301.24 80.1849L1297.25 83.9024L1295.55 82.0725ZM1299.54 78.355L1301.05 76.3643L1306.66 80.6262L1305.15 82.6169L1303.64 84.6076L1298.03 80.3457L1299.54 78.355ZM1305.15 82.6169L1303.44 80.7951L1316.08 68.9111L1317.8 70.7329L1319.51 72.5548L1306.86 84.4387L1305.15 82.6169ZM1317.8 70.7329L1319.31 68.7475L1322.93 71.5122L1321.41 73.4976L1319.89 75.4831L1316.28 72.7184L1317.8 70.7329ZM1321.41 73.4976L1319.02 72.7626L1323.58 57.9268L1325.97 58.6618L1328.36 59.3969L1323.8 74.2327L1321.41 73.4976ZM1325.97 58.6618L1328.24 57.6095L1333.76 69.4934L1331.49 70.5458L1329.22 71.5982L1323.7 59.7142L1325.97 58.6618ZM1331.49 70.5458L1329.17 69.6089L1336.3 51.9659L1338.62 52.9027L1340.94 53.8396L1333.81 71.4827L1331.49 70.5458ZM1338.62 52.9027L1340.89 51.8629L1345.46 61.8413L1343.18 62.8812L1340.91 63.9211L1336.35 53.9426L1338.62 52.9027ZM1343.18 62.8812L1341.16 61.4138L1346.39 54.2001L1348.41 55.6674L1350.44 57.1348L1345.21 64.3486L1343.18 62.8812ZM1348.41 55.6674L1349.74 53.5507L1353.64 56.0007L1352.31 58.1174L1350.98 60.2341L1347.08 57.7842L1348.41 55.6674ZM1352.31 58.1174L1351.17 55.8935L1353.74 54.575L1354.88 56.7988L1356.02 59.0227L1353.45 60.3413L1352.31 58.1174ZM1354.88 56.7988L1356.29 54.7367L1361.33 58.1904L1359.92 60.2526L1358.5 62.3148L1353.46 58.861L1354.88 56.7988ZM1359.92 60.2526L1362.04 58.9338L1374.69 79.299L1372.56 80.6178L1370.44 81.9367L1357.79 61.5714L1359.92 60.2526ZM1372.56 80.6178L1373.58 78.3347L1380.71 81.5163L1379.7 83.7994L1378.68 86.0825L1371.55 82.9009L1372.56 80.6178ZM1379.7 83.7994L1377.49 82.6156L1382.06 74.1258L1384.26 75.3096L1386.46 76.4934L1381.9 84.9831L1379.7 83.7994ZM1384.26 75.3096L1385.16 72.9794L1388.21 74.1618L1387.3 76.492L1386.4 78.8223L1383.35 77.6398L1384.26 75.3096ZM1387.3 76.492L1385.07 75.3579L1391.63 62.4701L1393.86 63.6043L1396.09 64.7384L1389.53 77.6262L1387.3 76.492ZM1393.86 63.6043L1395.84 62.0754L1408.01 77.8214L1406.03 79.3503L1404.06 80.8792L1391.88 65.1332L1393.86 63.6043ZM1406.03 79.3503L1407.62 77.4146L1413.23 81.9997L1411.64 83.9355L1410.06 85.8712L1404.45 81.286L1406.03 79.3503ZM1411.64 83.9355L1410.73 81.6092L1418.33 78.6148L1419.25 80.9411L1420.17 83.2673L1412.56 86.2617L1411.64 83.9355ZM1419.25 80.9411L1420.96 79.12L1424.48 82.4292L1422.77 84.2502L1421.06 86.0713L1417.54 82.7621L1419.25 80.9411ZM1422.77 84.2502L1421.24 82.2752L1425.32 79.1022L1426.86 81.0772L1428.39 83.0522L1424.3 86.2252L1422.77 84.2502ZM1426.86 81.0772L1428.06 78.8874L1431.11 80.5632L1429.9 82.753L1428.69 84.9429L1425.65 83.267L1426.86 81.0772ZM1429.9 82.753L1429.32 80.3213L1438.45 78.1435L1439.03 80.5753L1439.61 83.007L1430.48 85.1848L1429.9 82.753ZM1439.03 80.5753L1439.54 78.1273L1447.62 79.8032L1447.11 82.2511L1446.6 84.6991L1438.52 83.0232L1439.03 80.5753ZM1447.11 82.2511L1446.25 79.904L1454.9 76.7309L1455.76 79.0781L1456.62 81.4253L1447.97 84.5983L1447.11 82.2511ZM1455.76 79.0781L1456.17 76.6107L1464.25 77.9293L1463.84 80.3967L1463.44 82.864L1455.36 81.5455L1455.76 79.0781ZM1463.84 80.3967L1463.01 78.0399L1467.38 76.4917L1468.22 78.8484L1469.05 81.2051L1464.68 82.7534L1463.84 80.3967ZM1468.22 78.8484L1469.39 76.6397L1479.75 82.1351L1478.58 84.3438L1477.41 86.5525L1467.05 81.0571L1468.22 78.8484ZM1478.58 84.3438L1477.92 81.9339L1483.53 80.3856L1484.19 82.7956L1484.86 85.2055L1479.25 86.7537L1478.58 84.3438ZM1484.19 82.7956L1485.16 80.4921L1489.16 82.1764L1488.19 84.4799L1487.21 86.7834L1483.22 85.0991L1484.19 82.7956ZM1488.19 84.4799L1486.87 82.3562L1493.52 78.2219L1494.84 80.3456L1496.16 82.4693L1489.51 86.6036L1488.19 84.4799ZM1494.84 80.3456L1495.53 77.9416L1499.05 78.9454L1498.36 81.3494L1497.67 83.7535L1494.16 82.7497L1494.84 80.3456ZM1498.36 81.3494L1497.84 78.9048L1508.01 76.7271L1508.53 79.1717L1509.06 81.6163L1498.88 83.794L1498.36 81.3494ZM1508.53 79.1717L1506.52 77.6906L1514.13 67.3464L1516.14 68.8274L1518.16 70.3085L1510.55 80.6527L1508.53 79.1717ZM1516.14 68.8274L1517.97 67.127L1526.06 75.838L1524.22 77.5384L1522.39 79.2388L1514.31 70.5278L1516.14 68.8274ZM1524.22 77.5384L1523.15 75.2783L1533.8 70.2423L1534.87 72.5024L1535.94 74.7624L1525.29 79.7984L1524.22 77.5384ZM1534.87 72.5024L1535.81 70.1832L1538.85 71.4082L1537.92 73.7273L1536.98 76.0465L1533.94 74.8215L1534.87 72.5024ZM1537.92 73.7273L1535.78 72.4345L1538.82 67.3985L1540.96 68.6913L1543.1 69.9841L1540.06 75.0201L1537.92 73.7273ZM1540.96 68.6913L1541.95 66.3943L1550.6 70.1118L1549.61 72.4088L1548.62 74.7058L1539.97 70.9883L1540.96 68.6913ZM1549.61 72.4088L1548.76 70.0598L1552.75 68.6051L1553.6 70.9541L1554.46 73.3031L1550.47 74.7578L1549.61 72.4088ZM1553.6 70.9541L1551.61 69.449L1560.26 57.9734L1562.26 59.4785L1564.25 60.9836L1555.6 72.4592L1553.6 70.9541ZM1562.26 59.4785L1563.63 57.3906L1578.37 67.0968L1577 69.1847L1575.62 71.2726L1560.88 61.5664L1562.26 59.4785ZM1577 69.1847L1575.71 67.0376L1589.41 58.8711L1590.69 61.0182L1591.97 63.1653L1578.28 71.3318L1577 69.1847ZM1590.69 61.0182L1592.31 59.1133L1595.35 61.6994L1593.73 63.6043L1592.11 65.5092L1589.07 62.9231L1590.69 61.0182ZM1593.73 63.6043L1592.14 61.6779L1597.18 57.5095L1598.77 59.436L1600.36 61.3624L1595.32 65.5307L1593.73 63.6043ZM1598.77 59.436L1600.07 57.3012L1603.11 59.1557L1601.81 61.2904L1600.51 63.4252L1597.47 61.5707L1598.77 59.436ZM1601.81 61.2904L1600.71 59.0473L1603.75 57.5501L1604.85 59.7932L1605.96 62.0364L1602.92 63.5335L1601.81 61.2904ZM1604.85 59.7932L1606.73 58.1397L1617.85 70.7553L1615.98 72.4088L1614.1 74.0623L1602.98 61.4468L1604.85 59.7932ZM1615.98 72.4088L1616.36 69.9376L1646.31 74.5227L1645.93 76.9939L1645.55 79.4652L1615.6 74.88L1615.98 72.4088ZM1645.93 76.9939L1645.25 74.5883L1677.2 65.5541L1677.88 67.9597L1678.56 70.3654L1646.61 79.3996L1645.93 76.9939ZM1677.88 67.9597L1676.04 66.2709L1680.32 61.6007L1682.16 63.2895L1684 64.9784L1679.72 69.6486L1677.88 67.9597ZM1682.16 63.2895L1682.92 60.9083L1693.85 64.4046L1693.09 66.7858L1692.33 69.167L1681.4 65.6708L1682.16 63.2895ZM1693.09 66.7858L1691.12 65.2548L1705.28 46.9653L1707.26 48.4962L1709.24 50.0272L1695.07 68.3168L1693.09 66.7858ZM1707.26 48.4962L1706.74 46.0505L1710.36 45.2849L1710.87 47.7306L1711.39 50.1763L1707.78 50.9419L1707.26 48.4962ZM1710.87 47.7306L1708.76 46.4037L1711.23 42.4565L1713.35 43.7835L1715.46 45.1105L1712.99 49.0576L1710.87 47.7306ZM1713.35 43.7835L1714.4 41.5146L1721.05 44.594L1720 46.8629L1718.95 49.1319L1712.3 46.0524L1713.35 43.7835ZM1720 46.8629L1720.8 44.4932L1724.32 45.6756L1723.52 48.0454L1722.72 50.4151L1719.21 49.2327L1720 46.8629ZM1723.52 48.0454L1721.7 46.3359L1733.39 33.8564L1735.22 35.5659L1737.04 37.2755L1725.34 49.7549L1723.52 48.0454ZM1735.22 35.5659L1737.6 34.8307L1741.12 46.2638L1738.73 46.9991L1736.34 47.7343L1732.83 36.3012L1735.22 35.5659ZM1738.73 46.9991L1738.04 44.5961L1742.61 43.286L1743.3 45.689L1743.99 48.092L1739.42 49.402L1738.73 46.9991ZM1743.3 45.689L1745.72 45.0873L1750.76 65.41L1748.34 66.0117L1745.91 66.6134L1740.87 46.2907L1743.3 45.689ZM1748.34 66.0117L1746.23 64.6635L1764.01 36.8974L1766.12 38.2456L1768.22 39.5938L1750.44 67.3599L1748.34 66.0117ZM1766.12 38.2456L1768.36 37.1379L1788.14 77.1538L1785.9 78.2615L1783.65 79.3692L1763.88 39.3533L1766.12 38.2456ZM1785.9 78.2615L1784.69 76.0696L1789.73 73.3049L1790.93 75.4968L1792.14 77.6886L1787.1 80.4533L1785.9 78.2615ZM1790.93 75.4968L1792.27 73.3808L1800.92 78.8251L1799.59 80.9411L1798.26 83.0571L1789.6 77.6127L1790.93 75.4968ZM1799.59 80.9411L1798.33 78.7807L1803.94 75.5141L1805.2 77.6745L1806.46 79.8349L1800.85 83.1015L1799.59 80.9411ZM1805.2 77.6745L1806.1 75.3419L1810.09 76.8816L1809.19 79.2142L1808.29 81.5469L1804.3 80.0071L1805.2 77.6745ZM1809.19 79.2142L1807.28 77.6071L1809.37 75.1146L1811.28 76.7217L1813.2 78.3289L1811.11 80.8214L1809.19 79.2142ZM1811.28 76.7217L1812.79 74.7264L1817.35 78.1717L1815.85 80.167L1814.34 82.1623L1809.78 78.7171L1811.28 76.7217ZM1815.85 80.167L1813.68 78.9188L1819.2 69.3486L1821.36 70.5969L1823.53 71.8451L1818.01 81.4152L1815.85 80.167ZM1821.36 70.5969L1823.33 69.0589L1830.94 78.8077L1828.97 80.3456L1827 81.8835L1819.39 72.1348L1821.36 70.5969ZM1828.97 80.3456L1826.94 78.8879L1834.07 68.952L1836.1 70.4097L1838.13 71.8674L1831 81.8034L1828.97 80.3456ZM1836.1 70.4097L1837.57 68.3863L1840.14 70.2493L1838.67 72.2727L1837.2 74.2961L1834.63 72.4331L1836.1 70.4097ZM1838.67 72.2727L1837.35 70.1506L1839.82 68.6109L1841.14 70.733L1842.46 72.855L1839.99 74.3948L1838.67 72.2727ZM1841.14 70.733L1842.32 68.5303L1845.36 70.1636L1844.18 72.3663L1843 74.569L1839.96 72.9357L1841.14 70.733ZM1844.18 72.3663L1846.49 71.4023L1852.1 84.826L1849.79 85.79L1847.49 86.754L1841.88 73.3303L1844.18 72.3663ZM1849.79 85.79L1849.42 83.3173L1853.99 82.6368L1854.36 85.1094L1854.72 87.5821L1850.16 88.2626L1849.79 85.79ZM1854.36 85.1094L1854.84 82.656L1857.88 83.2514L1857.4 85.7049L1856.92 88.1584L1853.88 87.5629L1854.36 85.1094ZM1857.4 85.7049L1859.35 84.136L1866.48 92.983L1864.53 94.5519L1862.58 96.1209L1855.45 87.2738L1857.4 85.7049ZM1864.53 94.5519L1865.32 92.1802L1872.93 94.7152L1872.14 97.087L1871.35 99.4587L1863.74 96.9237L1864.53 94.5519ZM1872.14 97.087L1871.19 94.773L1875.18 93.1397L1876.13 95.4537L1877.08 97.7676L1873.08 99.4009L1872.14 97.087ZM1876.13 95.4537L1878.42 94.45L1881.46 101.392L1879.17 102.395L1876.88 103.399L1873.84 96.4573L1876.13 95.4537ZM1879.17 102.395L1877.61 100.444L1895.39 86.2035L1896.95 88.1548L1898.52 90.1062L1880.74 104.347L1879.17 102.395ZM1896.95 88.1548L1896.85 85.6568L1909.5 85.1549L1909.6 87.653L1909.7 90.151L1897.05 90.6529L1896.95 88.1548ZM1909.6 87.653L1907.92 85.8027L1910.96 83.038L1912.64 84.8882L1914.32 86.7385L1911.28 89.5032L1909.6 87.653ZM1912.64 84.8882L1913.8 82.6702L1916.84 84.2525L1915.69 86.4705L1914.53 88.6885L1911.49 87.1063L1912.64 84.8882ZM1915.69 86.4705L1915.51 83.9769L1923.68 83.39L1923.86 85.8836L1924.04 88.3771L1915.86 88.9641L1915.69 86.4705ZM1923.86 85.8836L1921.6 84.8194L1923.6 80.5745L1925.86 81.6387L1928.12 82.7028L1926.13 86.9477L1923.86 85.8836ZM1925.86 81.6387L1927.42 79.6861L1930.46 82.119L1928.9 84.0716L1927.34 86.0242L1924.3 83.5912L1925.86 81.6387ZM1928.9 84.0716L1927.18 82.257L1929.75 79.8241L1931.47 81.6387L1933.19 83.4533L1930.62 85.8862L1928.9 84.0716ZM1931.47 81.6387L1933.07 79.7208L1935.55 81.7879L1933.94 83.7058L1932.34 85.6237L1929.87 83.5565L1931.47 81.6387ZM1933.94 83.7058L1931.82 82.3778L1937.91 72.6716L1940.03 73.9996L1942.15 75.3275L1936.06 85.0338L1933.94 83.7058ZM1940.03 73.9996L1941.98 72.4358L1948.63 80.7385L1946.68 82.3022L1944.73 83.8659L1938.08 75.5633L1940.03 73.9996ZM1946.68 82.3022L1945.85 79.9434L1950.89 78.174L1951.72 80.5328L1952.55 82.8916L1947.51 84.661L1946.68 82.3022ZM1951.72 80.5328L1952.8 78.2759L1956.89 80.2239L1955.81 82.4808L1954.74 84.7378L1950.65 82.7897L1951.72 80.5328ZM1955.81 82.4808L1955.26 80.0424L1962.3 78.4516L1962.85 80.8901L1963.4 83.3285L1956.36 84.9193L1955.81 82.4808ZM1962.85 80.8901L1964.22 78.7998L1966.79 80.4841L1965.41 82.5744L1964.04 84.6647L1961.48 82.9804L1962.85 80.8901ZM1965.41 82.5744L1964.34 80.3186L1969.38 77.9112L1970.45 80.167L1971.53 82.4228L1966.49 84.8302L1965.41 82.5744ZM1970.45 80.167L1971.08 77.7466L1982.3 80.6474L1981.67 83.0678L1981.05 85.4882L1969.83 82.5874L1970.45 80.167ZM1981.67 83.0678L1980.57 80.8261L1988.65 76.8364L1989.76 79.0781L1990.86 81.3199L1982.78 85.3095L1981.67 83.0678ZM1989.76 79.0781L1990.77 76.794L1997.9 79.967L1996.89 82.2511L1995.87 84.5353L1988.74 81.3622L1989.76 79.0781ZM1996.89 82.2511L1995.89 79.9609L1999.4 78.4212L2000.41 80.7114L2001.41 83.0017L1997.89 84.5414L1996.89 82.2511ZM2000.41 80.7114L2001.91 78.7161L2011.04 85.6066L2009.53 87.6019L2008.03 89.5972L1998.9 82.7068L2000.41 80.7114ZM2009.53 87.6019L2008.11 85.5504L2011.62 83.1004L2013.05 85.152L2014.48 87.2035L2010.96 89.6535L2009.53 87.6019ZM2013.05 85.152L2014.27 82.9665L2027.01 90.0442L2025.79 92.2296L2024.58 94.4151L2011.84 87.3374L2013.05 85.152ZM2025.79 92.2296L2024.4 90.157L2048.74 73.7389L2050.13 75.8115L2051.53 77.8841L2027.19 94.3022L2025.79 92.2296ZM2050.13 75.8115L2048.09 74.3691L2056.65 62.2554L2058.69 63.6979L2060.73 65.1403L2052.18 77.254L2050.13 75.8115ZM2058.69 63.6979L2060.52 61.9932L2091.52 95.2462L2089.69 96.9509L2087.86 98.6555L2056.86 65.4025L2058.69 63.6979ZM2089.69 96.9509L2088.14 94.9867L2098.22 87.0499L2099.77 89.014L2101.32 90.9782L2091.24 98.915L2089.69 96.9509ZM2099.77 89.014L2101.55 87.263L2107.16 92.9795L2105.38 94.7306L2103.59 96.4817L2097.98 90.7651L2099.77 89.014ZM2105.38 94.7306L2103.55 93.0267L2108.11 88.1267L2109.94 89.8307L2111.77 91.5346L2107.21 96.4346L2105.38 94.7306ZM2109.94 89.8307L2111.18 87.6556L2115.74 90.2417L2114.51 92.4168L2113.27 94.5919L2108.71 92.0058L2109.94 89.8307ZM2114.51 92.4168L2113.48 90.1369L2120.04 87.185L2121.07 89.4649L2122.09 91.7448L2115.53 94.6966L2114.51 92.4168ZM2121.07 89.4649L2119.3 87.6978L2129 77.9916L2130.77 79.7587L2132.53 81.5257L2122.84 91.232L2121.07 89.4649ZM2130.77 79.7587L2128.5 78.7032L2136.11 62.3702L2138.37 63.4257L2140.64 64.4811L2133.03 80.8141L2130.77 79.7587ZM2138.37 63.4257L2140.6 62.2811L2148.68 77.9761L2146.46 79.1207L2144.23 80.2652L2136.15 64.5702L2138.37 63.4257ZM2146.46 79.1207L2147.99 77.1469L2171.86 95.7002L2170.32 97.674L2168.79 99.6477L2144.92 81.0944L2146.46 79.1207ZM2170.32 97.674L2167.92 96.9837L2177.52 63.5521L2179.93 64.2423L2182.33 64.9325L2172.72 98.3642L2170.32 97.674ZM2179.93 64.2423L2182.2 63.1972L2196.93 95.2253L2194.66 96.2703L2192.39 97.3154L2177.65 65.2874L2179.93 64.2423ZM2194.66 96.2703L2192.26 95.5704L2198.35 74.7033L2200.75 75.4032L2203.15 76.1031L2197.06 96.9702L2194.66 96.2703ZM2200.75 75.4032L2202.08 73.289L2205.6 75.5093L2204.27 77.6235L2202.93 79.7377L2199.41 77.5174L2200.75 75.4032ZM2204.27 77.6235L2202.02 76.5279L2204.59 71.2622L2206.83 72.3578L2209.08 73.4534L2206.51 78.7191L2204.27 77.6235ZM2206.83 72.3578L2209.09 71.2825L2221.26 96.8284L2219 97.9036L2216.75 98.9789L2204.58 73.433L2206.83 72.3578ZM2219 97.9036L2219.76 95.5189L2227.84 98.0625L2227.09 100.447L2226.34 102.832L2218.25 100.288L2219 97.9036ZM2227.09 100.447L2224.8 99.438L2229.36 89.0938L2231.65 90.1029L2233.94 91.1121L2229.37 101.456L2227.09 100.447ZM2231.65 90.1029L2233.44 88.3533L2240.19 95.2438L2238.4 96.9934L2236.62 98.743L2229.87 91.8525L2231.65 90.1029ZM2238.4 96.9934L2236.08 96.0773L2242.54 79.6593L2244.87 80.5753L2247.19 81.4914L2240.73 97.9095L2238.4 96.9934ZM2244.87 80.5753L2246.57 78.7454L2269.87 100.429L2268.16 102.259L2266.46 104.089L2243.16 82.4053L2244.87 80.5753ZM2268.16 102.259L2265.79 101.488L2275.96 70.09L2278.34 70.8606L2280.72 71.6312L2270.54 103.03L2268.16 102.259ZM2278.34 70.8606L2280.24 69.2417L2282.71 72.151L2280.81 73.7699L2278.9 75.3888L2276.43 72.4795L2278.34 70.8606ZM2280.81 73.7699L2278.86 72.2101L2281.9 68.3991L2283.85 69.9589L2285.81 71.5187L2282.76 75.3297L2280.81 73.7699ZM2283.85 69.9589L2286.27 69.3207L2290.83 86.6064L2288.42 87.2446L2286 87.8829L2281.44 70.5971L2283.85 69.9589ZM2288.42 87.2446L2290.74 86.3301L2299.87 109.554L2297.54 110.468L2295.22 111.383L2286.09 88.1592L2288.42 87.2446ZM2297.54 110.468L2295.19 109.631L2299.75 96.7939L2302.11 97.6314L2304.46 98.4689L2299.9 111.306L2297.54 110.468ZM2302.11 97.6314L2304.5 96.9038L2309.63 113.781L2307.24 114.509L2304.85 115.237L2299.72 98.3591L2302.11 97.6314ZM2307.24 114.509L2309.34 113.141L2314.85 121.58L2312.76 122.948L2310.67 124.315L2305.15 115.877L2307.24 114.509ZM2312.76 122.948L2311.1 121.079L2318.7 114.316L2320.36 116.185L2322.03 118.053L2314.42 124.816L2312.76 122.948ZM2320.36 116.185L2317.95 115.532L2324.61 90.9385L2327.02 91.5916L2329.43 92.2447L2322.78 116.838L2320.36 116.185ZM2327.02 91.5916L2329.26 90.4841L2333.26 98.5655L2331.01 99.6731L2328.77 100.781L2324.78 92.6992L2327.02 91.5916ZM2331.01 99.6731L2328.66 98.8187L2332.28 88.8828L2334.63 89.7371L2336.98 90.5915L2333.36 100.527L2331.01 99.6731ZM2334.63 89.7371L2336.23 87.822L2339.75 90.7738L2338.15 92.689L2336.54 94.6042L2333.02 91.6523L2334.63 89.7371ZM2338.15 92.689L2335.75 91.9687L2338.32 83.4364L2340.71 84.1567L2343.11 84.877L2340.54 93.4093L2338.15 92.689ZM2340.71 84.1567L2343 83.1479L2355.65 111.824L2353.36 112.833L2351.07 113.842L2338.43 85.1655L2340.71 84.1567ZM2353.36 112.833L2350.95 112.177L2360.07 78.6009L2362.49 79.2568L2364.9 79.9126L2355.77 113.489L2353.36 112.833ZM2362.49 79.2568L2364.82 78.3633L2377.47 111.412L2375.13 112.306L2372.8 113.199L2360.15 80.1502L2362.49 79.2568ZM2375.13 112.306L2375.96 109.947L2382.62 112.286L2381.79 114.645L2380.96 117.004L2374.3 114.664L2375.13 112.306ZM2381.79 114.645L2379.74 113.219L2394.95 91.3058L2397 92.7315L2399.06 94.1572L2383.84 116.071L2381.79 114.645ZM2397 92.7315L2399.41 92.0484L2405.97 115.144L2403.56 115.827L2401.16 116.511L2394.6 93.4147L2397 92.7315ZM2403.56 115.827L2404.36 113.458L2412.44 116.18L2411.65 118.55L2410.85 120.919L2402.77 118.197L2403.56 115.827ZM2411.65 118.55L2410.13 116.56L2413.18 114.246L2414.69 116.236L2416.2 118.226L2413.16 120.54L2411.65 118.55ZM2414.69 116.236L2416.03 114.126L2423.16 118.66L2421.82 120.77L2420.48 122.88L2413.35 118.345L2414.69 116.236ZM2421.82 120.77L2420.87 118.455L2425.44 116.592L2426.38 118.907L2427.33 121.221L2422.76 123.084L2421.82 120.77ZM2426.38 118.907L2426.98 116.479L2431.07 117.483L2430.47 119.911L2429.88 122.339L2425.79 121.335L2426.38 118.907ZM2430.47 119.911L2428.33 118.623L2435.37 106.917L2437.51 108.205L2439.65 109.493L2432.61 121.199L2430.47 119.911ZM2437.51 108.205L2439.58 106.809L2442.15 110.62L2440.08 112.016L2438 113.413L2435.44 109.602L2437.51 108.205ZM2440.08 112.016L2438.47 110.096L2444.08 105.418L2445.69 107.338L2447.29 109.258L2441.68 113.936L2440.08 112.016ZM2445.69 107.338L2447.98 106.356L2453.02 118.155L2450.73 119.137L2448.43 120.119L2443.39 108.32L2445.69 107.338ZM2450.73 119.137L2448.44 118.118L2465.18 80.6115L2467.46 81.6302L2469.74 82.6488L2453.01 120.155L2450.73 119.137ZM2467.46 81.6302L2469.92 81.1864L2474.96 109.123L2472.5 109.566L2470.04 110.01L2465 82.074L2467.46 81.6302ZM2472.5 109.566L2471.41 107.317L2477.49 104.365L2478.59 106.615L2479.68 108.864L2473.59 111.816L2472.5 109.566ZM2478.59 106.615L2480.79 105.443L2488.4 119.777L2486.19 120.949L2483.98 122.12L2476.38 107.786L2478.59 106.615ZM2486.19 120.949L2487.01 118.587L2497.19 122.126L2496.37 124.487L2495.54 126.849L2485.37 123.31L2486.19 120.949ZM2496.37 124.487L2494.45 122.884L2499.49 116.853L2501.41 118.456L2503.32 120.059L2498.28 126.09L2496.37 124.487ZM2501.41 118.456L2503.24 116.757L2513.41 127.739L2511.58 129.438L2509.75 131.137L2499.57 120.155L2501.41 118.456ZM2511.58 129.438L2509.92 127.571L2513.44 124.44L2515.1 126.308L2516.76 128.175L2513.24 131.306L2511.58 129.438ZM2515.1 126.308L2516.25 124.09L2518.34 125.179L2517.19 127.397L2516.04 129.614L2513.94 128.525L2515.1 126.308ZM2517.19 127.397L2515.12 126L2521.2 116.966L2523.27 118.362L2525.35 119.759L2519.26 128.793L2517.19 127.397ZM2523.27 118.362L2525.64 117.565L2530.21 131.134L2527.84 131.931L2525.47 132.728L2520.91 119.16L2523.27 118.362ZM2527.84 131.931L2528.68 129.578L2538.76 133.202L2537.92 135.555L2537.07 137.907L2526.99 134.283L2527.84 131.931ZM2537.92 135.555L2535.66 134.473L2538.23 129.122L2540.48 130.204L2542.74 131.285L2540.17 136.636L2537.92 135.555ZM2540.48 130.204L2542.57 128.823L2546.09 134.131L2544 135.512L2541.92 136.893L2538.4 131.585L2540.48 130.204ZM2544 135.512L2541.62 134.758L2550.27 107.4L2552.66 108.154L2555.04 108.908L2546.39 136.266L2544 135.512ZM2552.66 108.154L2555.04 107.418L2563.7 135.499L2561.31 136.235L2558.92 136.971L2550.27 108.89L2552.66 108.154ZM2561.31 136.235L2561.57 133.749L2568.13 134.429L2567.87 136.916L2567.61 139.402L2561.05 138.722L2561.31 136.235ZM2567.87 136.916L2566.87 134.623L2575.53 130.863L2576.52 133.156L2577.52 135.449L2568.87 139.209L2567.87 136.916ZM2576.52 133.156L2578.53 131.662L2581.57 135.745L2579.56 137.239L2577.56 138.733L2574.52 134.65L2576.52 133.156ZM2579.56 137.239L2578.66 134.909L2581.7 133.726L2582.61 136.057L2583.51 138.387L2580.47 139.569L2579.56 137.239ZM2582.61 136.057L2583.35 133.671L2585.83 134.445L2585.08 136.831L2584.33 139.216L2581.86 138.442L2582.61 136.057ZM2585.08 136.831L2584.91 134.337L2593.56 133.741L2593.73 136.235L2593.9 138.729L2585.25 139.325L2585.08 136.831ZM2593.73 136.235L2594.45 133.84L2597.49 134.75L2596.77 137.145L2596.06 139.541L2593.02 138.63L2593.73 136.235ZM2596.77 137.145L2595.49 135.001L2601.1 131.641L2602.38 133.785L2603.67 135.93L2598.06 139.29L2596.77 137.145ZM2602.38 133.785L2603.36 131.483L2610.97 134.708L2609.99 137.009L2609.02 139.311L2601.41 136.087L2602.38 133.785ZM2609.99 137.009L2608.67 134.889L2614.18 131.444L2615.51 133.564L2616.83 135.684L2611.32 139.13L2609.99 137.009ZM2615.51 133.564L2616.58 131.306L2619.62 132.752L2618.55 135.01L2617.48 137.268L2614.43 135.822L2615.51 133.564ZM2618.55 135.01L2616.21 134.119L2621.82 119.419L2624.16 120.311L2626.49 121.202L2620.88 135.902L2618.55 135.01ZM2624.16 120.311L2625.21 118.043L2628.73 119.676L2627.68 121.944L2626.62 124.211L2623.11 122.578L2624.16 120.311ZM2627.68 121.944L2626.68 119.653L2632.29 117.203L2633.29 119.494L2634.29 121.785L2628.68 124.235L2627.68 121.944ZM2633.29 119.494L2630.96 118.574L2639.52 96.9415L2641.84 97.8611L2644.17 98.7807L2635.61 120.413L2633.29 119.494ZM2641.84 97.8611L2643.98 96.5613L2661.76 125.774L2659.63 127.073L2657.49 128.373L2639.71 99.1609L2641.84 97.8611ZM2659.63 127.073L2657.7 125.476L2675.48 104.065L2677.41 105.662L2679.33 107.259L2661.55 128.671L2659.63 127.073ZM2677.41 105.662L2678.28 103.319L2681.32 104.45L2680.45 106.793L2679.58 109.136L2676.54 108.005L2677.41 105.662ZM2680.45 106.793L2678.6 105.113L2681.64 101.761L2683.49 103.442L2685.34 105.122L2682.3 108.474L2680.45 106.793ZM2683.49 103.442L2685.81 102.5L2697.5 131.261L2695.19 132.203L2692.87 133.145L2681.18 104.383L2683.49 103.442ZM2695.19 132.203L2697.1 130.591L2704.13 138.937L2702.22 140.548L2700.31 142.16L2693.28 133.814L2695.19 132.203ZM2702.22 140.548L2700.38 138.856L2703.43 135.547L2705.27 137.239L2707.11 138.931L2704.06 142.24L2702.22 140.548ZM2705.27 137.239L2707.2 135.654L2712.33 141.915L2710.4 143.5L2708.47 145.085L2703.33 138.824L2705.27 137.239ZM2710.4 143.5L2709.58 141.139L2714.14 139.549L2714.96 141.909L2715.79 144.27L2711.22 145.861L2710.4 143.5ZM2714.96 141.909L2715.47 139.46L2719.46 140.277L2718.96 142.726L2718.46 145.175L2714.46 144.359L2714.96 141.909ZM2718.96 142.726L2717.72 140.556L2724.37 136.745L2725.61 138.915L2726.86 141.084L2720.2 144.895L2718.96 142.726ZM2725.61 138.915L2723.15 138.475L2732.19 87.9784L2734.65 88.4186L2737.11 88.8588L2728.08 139.355L2725.61 138.915ZM2734.65 88.4186L2736.98 87.5301L2749.25 119.788L2746.91 120.676L2744.58 121.565L2732.31 89.3071L2734.65 88.4186ZM2746.91 120.676L2745.73 118.474L2750.29 116.024L2751.48 118.226L2752.66 120.429L2748.1 122.879L2746.91 120.676ZM2751.48 118.226L2753.2 116.412L2761.28 124.077L2759.56 125.891L2757.84 127.705L2749.76 120.04L2751.48 118.226ZM2759.56 125.891L2757.35 124.723L2771.99 97.008L2774.2 98.1759L2776.41 99.3437L2761.77 127.059L2759.56 125.891ZM2774.2 98.1759L2776.19 96.6571L2791.97 117.295L2789.99 118.813L2788 120.332L2772.22 99.6946L2774.2 98.1759ZM2789.99 118.813L2788.02 117.266L2792.78 111.234L2794.74 112.782L2796.7 114.33L2791.95 120.361L2789.99 118.813ZM2794.74 112.782L2795.96 110.601L2800.34 113.051L2799.11 115.232L2797.89 117.413L2793.52 114.963L2794.74 112.782ZM2799.11 115.232L2797.01 113.881L2808.14 96.553L2810.24 97.9037L2812.34 99.2543L2801.22 116.583L2799.11 115.232ZM2810.24 97.9037L2812.58 97.0221L2823.23 125.282L2820.89 126.163L2818.55 127.045L2807.9 98.7853L2810.24 97.9037ZM2820.89 126.163L2819.51 124.079L2824.64 120.677L2826.02 122.76L2827.4 124.844L2822.27 128.247L2820.89 126.163ZM2826.02 122.76L2828.37 121.909L2832.37 132.934L2830.02 133.785L2827.67 134.637L2823.67 123.612L2826.02 122.76ZM2830.02 133.785L2828.2 132.064L2832.29 127.759L2834.11 129.481L2835.92 131.203L2831.83 135.507L2830.02 133.785ZM2834.11 129.481L2836.25 128.188L2839.29 133.224L2837.15 134.517L2835.01 135.81L2831.97 130.774L2834.11 129.481ZM2837.15 134.517L2835.22 132.926L2837.79 129.813L2839.72 131.403L2841.64 132.994L2839.08 136.107L2837.15 134.517ZM2839.72 131.403L2841.01 129.263L2844.05 131.101L2842.76 133.241L2841.47 135.381L2838.42 133.543L2839.72 131.403ZM2842.76 133.241L2842.17 130.812L2845.68 129.953L2846.28 132.382L2846.87 134.81L2843.35 135.669L2842.76 133.241ZM2846.28 132.382L2843.86 131.729L2850.9 105.69L2853.31 106.342L2855.73 106.995L2848.69 133.034L2846.28 132.382ZM2853.31 106.342L2855.57 105.279L2865.75 126.92L2863.49 127.984L2861.22 129.047L2851.05 107.406L2853.31 106.342ZM2863.49 127.984L2862.09 125.912L2888.43 108.124L2889.82 110.196L2891.22 112.268L2864.89 130.055L2863.49 127.984ZM2889.82 110.196L2887.32 110.196L2887.32 105.39L2889.82 105.39L2892.32 105.39L2892.32 110.196L2889.82 110.196ZM2889.82 105.39L2890.37 102.95L2893.41 103.63L2892.87 106.07L2892.32 108.51L2889.28 107.829L2889.82 105.39ZM2892.87 106.07L2890.37 106.07L2890.37 104.071L2892.87 104.071L2895.37 104.071L2895.37 106.07L2892.87 106.07ZM2892.87 104.071L2893.71 101.717L2896.75 102.806L2895.91 105.16L2895.07 107.514L2892.03 106.425L2892.87 104.071ZM2895.91 105.16L2893.45 104.741L2897.53 80.7006L2900 81.1198L2902.46 81.539L2898.37 105.579L2895.91 105.16ZM2900 81.1198L2902.43 80.5352L2911.08 116.51L2908.65 117.095L2906.22 117.68L2897.57 81.7044L2900 81.1198ZM2908.65 117.095L2906.88 115.333L2912.96 109.208L2914.74 110.97L2916.51 112.732L2910.43 118.857L2908.65 117.095ZM2914.74 110.97L2915.68 108.654L2920.24 110.508L2919.3 112.825L2918.36 115.141L2913.8 113.286L2914.74 110.97ZM2919.3 112.825L2917.65 110.951L2927.25 102.469L2928.9 104.343L2930.56 106.217L2920.96 114.698L2919.3 112.825ZM2928.9 104.343L2930.23 102.224L2933.27 104.13L2931.95 106.249L2930.62 108.368L2927.58 106.462L2928.9 104.343ZM2931.95 106.249L2929.97 104.717L2936.06 96.8656L2938.03 98.3971L2940.01 99.9285L2933.92 107.78L2931.95 106.249ZM2938.03 98.3971L2939.16 96.1636L2942.67 97.933L2941.55 100.166L2940.43 102.4L2936.91 100.63L2938.03 98.3971ZM2941.55 100.166L2939.58 98.6284L2950.8 84.2519L2952.77 85.79L2954.74 87.3281L2943.52 101.705L2941.55 100.166ZM2952.77 85.79L2955.01 84.674L2961.09 96.8728L2958.86 97.9887L2956.62 99.1047L2950.53 86.906L2952.77 85.79ZM2958.86 97.9887L2960.3 95.9511L2963.82 98.4521L2962.37 100.49L2960.93 102.527L2957.41 100.026L2958.86 97.9887ZM2962.37 100.49L2960.26 99.155L2968.91 85.4506L2971.03 86.7853L2973.14 88.12L2964.49 101.824L2962.37 100.49ZM2971.03 86.7853L2973.3 85.7367L2975.77 91.0875L2973.5 92.1361L2971.23 93.1846L2968.76 87.8339L2971.03 86.7853ZM2973.5 92.1361L2971.93 90.1888L2976.5 86.5139L2978.06 88.4611L2979.63 90.4084L2975.07 94.0833L2973.5 92.1361ZM2978.06 88.4611L2979.6 86.4908L2988.73 93.6195L2987.19 95.5898L2985.65 97.5602L2976.52 90.4315L2978.06 88.4611ZM2987.19 95.5898L2988.07 93.2486L2994.72 95.7411L2993.85 98.0823L2992.97 100.424L2986.31 97.931L2987.19 95.5898ZM2993.85 98.0823L2992.74 95.8414L2997.78 93.3489L2998.89 95.5898L2999.99 97.8307L2994.96 100.323L2993.85 98.0823ZM2998.89 95.5898L3000.89 94.091L3014.1 111.734L3012.1 113.233L3010.1 114.732L2996.89 97.0887L2998.89 95.5898ZM3012.1 113.233L3011.72 110.763L3016.95 109.946L3017.33 112.416L3017.72 114.886L3012.49 115.703L3012.1 113.233Z" fill="white"/>
</svg>
