<?xml version="1.0" encoding="UTF-8"?>
<svg id="Layer_1" data-name="Layer 1" xmlns="http://www.w3.org/2000/svg" viewBox="0 0 1080 1920">
  <defs>
    <style>
      .cls-1 {
        fill: #00b6eb;
      }
    </style>
  </defs>
  <path class="cls-1" d="M690.35,1853.02c-.06,0-.11,0-.17,0-1.71-.09-3.02-1.55-2.92-3.26l.46-8.51,1.38-16.68.45-9.25c.04-.77.36-1.5.91-2.04l11.96-11.9.41-10.69.55-4.86h-2.95c-1.04,0-2.01-.53-2.59-1.4-.57-.87-.67-1.97-.25-2.93l2.75-6.38,2.81-4.53-1.65-10.34-.5-11.41c-.04-1,.41-1.96,1.2-2.58l6.93-5.36-.33-4.29c-.02-.34,0-.68.09-1l2.28-8.93c.18-.7.6-1.32,1.19-1.74l11.21-8.1,1.2-14.51-6.79-19.32-5.6-4.16-11.75-2.83c-.8-.19-1.5-.7-1.93-1.42l-4.58-7.65c-.48-.8-.57-1.77-.26-2.65.32-.88,1.01-1.56,1.89-1.87l5.74-2,1.77-7.22-.87-9.69-.92-13.68c-.06-.85.24-1.7.83-2.32.59-.63,1.4-.98,2.26-.98h3.84l1.06-2.71c.23-.58.63-1.08,1.15-1.43l5.52-3.75v-3.89c0-.37.07-.74.2-1.09l3.2-8.51c.14-.37.35-.72.62-1.01l4.81-5.21,1.71-14.73c.05-.41.18-.81.39-1.18l3.95-6.92,2.19-7.32c.1-.34.26-.66.47-.95l5.67-7.7,2.64-7.65-5.86-3.03c-1.32-.68-1.97-2.2-1.55-3.62l2.74-9.36c.06-.18.13-.36.21-.53l3.48-6.82-2.22-5.5c-.15-.37-.23-.76-.23-1.16v-7.23l-.91-9.05c-.09-1,.3-1.99,1.06-2.65l5.27-4.54-.39-8.27c-.02-.56.1-1.12.37-1.61l5.95-11.06c.4-.75,1.1-1.3,1.93-1.52.82-.23,1.7-.09,2.43.36l20.94,12.96,8.65-1.75,16.38-12.33,12.6-7.81c.72-.44,1.6-.57,2.41-.37l18.15,4.7,7.94-6.63,3.78-4.35c.18-.21.39-.39.62-.54l9.6-6.31v-6.41c0-.39.07-.78.22-1.15l4.41-11.06.75-8.76-7.72-7.92c-.36-.37-.62-.83-.77-1.33l-3.03-10.87-8.77-10.99c-.6-.75-.81-1.74-.58-2.68l1.21-4.85-1.24-6.12-5.08-12.86-7.27-6.75c-1.09-1.01-1.3-2.66-.51-3.91l6.41-10.21,10.27-13.03,7.97-12.66-9.3-4.05-12.55-2.91-9.89-1.66c-1.16-.2-2.11-1.03-2.45-2.17l-2.29-7.65c-.12-.4-.15-.83-.1-1.24l2.79-23.93c.08-.7.4-1.36.9-1.85l8.25-8.08c.94-.92,2.35-1.14,3.52-.58l10.53,5.1,7.48,2.41,5.69-3.17,6.99-2.86,5.47-6.25,7.42-7.76,5.02-6.63,4.62-11.3-.87-14.18c-.04-.7.15-1.39.55-1.97l4.6-6.57-3.07-3.71c-.18-.21-.32-.44-.43-.69l-4.85-10.66-13.04-15.45c-.46-.55-.7-1.25-.7-1.97v-9.04l-6.08-12.1c-.35-.69-.42-1.48-.22-2.22l2.74-9.78-9.29-9.71-5.7-2.18-12.44,7.7c-.86.53-1.92.61-2.82.22-.92-.39-1.6-1.19-1.82-2.17l-1.61-7.11-9.33-8.27c-.27-.24-.5-.53-.67-.85l-7.33-13.61c-.12-.21-.2-.43-.26-.66l-2.29-8.51c-.07-.26-.1-.53-.1-.8v-7.97l-5.87-8.56c-.5-.73-.67-1.65-.45-2.51l1.46-5.75-4.99-6.28-23.13-10.33c-.8-.36-1.41-1.04-1.68-1.87l-2.21-6.84-8.62-2.01-8.59-3.08c-.57-.21-1.07-.58-1.44-1.07l-5.04-6.8c-.24-.32-.41-.68-.51-1.06l-4.67-17.95-5.22-8.09-7.12-16.73-5-10.88c-.2-.44-.3-.92-.28-1.41l.46-12.33,1.95-11.75-3.9-1.95c-.59-.3-1.08-.78-1.38-1.37l-3.67-7.23c-.3-.59-.41-1.27-.29-1.93l1.21-7.01h-2.27c-.67,0-1.31-.21-1.84-.61l-5.63-4.18-9.97,2.96c-1.26.36-2.59-.07-3.36-1.11l-6.4-8.54h-5.32c-.99,0-1.91-.47-2.49-1.27l-5.41-7.37-3.09,1.32-7.8,8.45c-.99,1.08-2.61,1.32-3.87.55l-16.94-10.21c-.26-.16-.5-.36-.7-.58l-5.95-6.63h-8.24c-.88,0-1.72-.37-2.3-1.03l-9.16-10.21-6.58-5.35h-9.43c-.94,0-1.82-.42-2.41-1.15l-9.01-11.15-5.01-1.43c-1.14-.32-1.99-1.27-2.2-2.43l-1.83-10.21c-.04-.21-.06-.43-.05-.65l.46-13.18-1.82-17.01-2.68-11.08c-.22-.92,0-1.89.58-2.64.58-.74,1.48-1.18,2.43-1.18h4l-2.88-8.98c-.25-.78-.18-1.63.19-2.35l3.18-6.23-9-4.18-11.59-6.76-13.04,2.73c-.95.2-1.93-.06-2.66-.69l-6.87-5.95c-.3-.26-.55-.58-.73-.93l-4.12-8.08-2.91-8.38-10.1,2.41c-.41.1-.85.12-1.26.04l-9.53-1.69-11.36,2.03c-1,.17-2-.14-2.71-.83l-8.7-8.51c-.59-.58-.93-1.38-.93-2.21v-18l-3.82-7.86c-.55-1.12-.36-2.46.46-3.4l2.7-3.06-1.89-3.51-5.58-4.49-9.36-.36-7.67,2.77c-.45.16-.92.21-1.4.16l-18.49-2.09-11.16.83c-1.8.15-3.04-1.03-3.29-2.61l-.81-5.31-9.34,3.1c-.48.17-1.01.21-1.51.11l-8.66-1.53-7.36,3.42c-1.3.61-2.87.23-3.76-.92l-5.3-6.89-5.4,2.76-1.17,9.43c-.12.94-.66,1.77-1.46,2.26-.8.49-1.79.59-2.68.26l-12.82-4.68c-.91-.33-1.62-1.08-1.9-2.01l-3.21-10.63c-.18-.6-.18-1.24.01-1.83l2.05-6.46-1.67-8.14c-.09-.45-.08-.91.03-1.35l1.93-7.87-3.16-3.91c-.58-.71-.81-1.64-.63-2.54l1.75-8.94-.39-4.97-5.71-12.25c-.25-.53-.34-1.12-.26-1.7l1.38-10.63.43-12.9c.01-.32.07-.64.18-.94l3.66-10.21c.18-.5.48-.94.88-1.28l10.77-9.42c.7-.62,1.66-.88,2.6-.72l9.16,1.7c.45.09.88.27,1.26.54l8.56,6.23,16.8-14.23-1.35-6.87-7.34-9.63c-.52-.69-.74-1.56-.59-2.41l1.25-7.19,2.35-8.78c.36-1.35,1.59-2.29,2.99-2.29h7.49l3.82-9.92c.07-.19.17-.37.27-.53l6.41-10.21c.17-.27.38-.51.62-.72l3.12-2.63-1.88-3.5-9.35-3.02c-.64-.21-1.19-.62-1.59-1.17l-5.95-8.51-5.98-9.52-12.87-5.57c-.67-.29-1.21-.81-1.54-1.46l-5.35-10.69-11.18-3.22-14.77,3.63c-1.56.38-3.12-.47-3.65-1.96l-3.64-10.14-15.6-5.87c-.87-.33-1.55-1.03-1.84-1.91l-4.29-12.74-12.11-9.64c-.23-.18-.42-.39-.59-.62l-3.15-4.39-4.23-1.79c-.61-.26-1.13-.71-1.46-1.28l-2.75-4.68c-.15-.27-.28-.56-.34-.86l-2.29-9.78-1.86-9.47c-.04-.2-.06-.39-.06-.59v-15.15l-4.77-2.53c-1.01-.54-1.65-1.59-1.65-2.73v-3.33l-4.53-6.88c-.33-.5-.51-1.1-.51-1.7v-7.87l-7.59-9.8c-.33-.42-.55-.92-.62-1.46l-1.45-10.1h-7.85c-1.3,0-2.47-.82-2.91-2.05l-1.88-5.22-3.94-2c-.95-.48-1.58-1.41-1.68-2.46l-1.56-15.98c-.13-1.32.6-2.58,1.81-3.12l12.01-5.41-9.46-16.62-5.37-1.87-9.65,2.34c-.18.04-.37.07-.56.08l-6.1.33-3.29,5.76c-.39.69-1.03,1.21-1.8,1.43l-18.52,5.54c-1.09.33-2.29.02-3.1-.8l-8.7-8.93c-.47-.49-.78-1.12-.85-1.79l-.88-7.29-7.2-19.22c-.21-.57-.25-1.19-.12-1.79l3.61-15.52c.12-.48.34-.92.66-1.3l9.13-10.75c.95-1.12,2.55-1.42,3.83-.72l19.97,10.77,19.99-2.91,4.84-21.19-4.46-8.98-8.41-3.19h-6.3c-.39,0-.77-.07-1.13-.21l-8.7-3.4-17.43-7.57c-.99-.43-1.68-1.34-1.83-2.41l-2.17-15.68c-.06-.39-.03-.78.06-1.16l3.2-13.18c.39-1.59,1.99-2.58,3.55-2.31l6.94,1.24-2.66-8.78c-.17-.55-.18-1.14-.03-1.7l4.02-14.92v-11.41l-8.06-4.64c-.96-.55-1.55-1.57-1.55-2.68v-4.18l-3.13-2.91c-.84-.78-1.18-1.96-.89-3.07l1.24-4.61h-1.91c-.93,0-1.81-.42-2.4-1.14l-12.83-15.74c-.55-.67-.79-1.54-.67-2.4l1.54-10.72-4.64-2.77c-.94-.56-1.51-1.57-1.51-2.66v-3.42l-3.17-2.06c-.43-.28-.79-.67-1.03-1.13l-5.5-10.21c-.81-1.5-.25-3.38,1.26-4.19,1.49-.8,3.37-.26,4.19,1.26l5.13,9.51,3.91,2.55c.88.57,1.4,1.55,1.4,2.59v3.34l4.91,2.93c1.07.64,1.66,1.86,1.48,3.1l-1.64,11.41,11.04,13.54h4.48c.96,0,1.87.45,2.46,1.21.59.77.78,1.76.53,2.69l-1.81,6.7,2.75,2.56c.63.58.99,1.41.99,2.27v3.74l8.06,4.64c.96.55,1.55,1.57,1.55,2.68v13.61c0,.27-.03.54-.1.8l-3.89,14.46,3.86,12.76c.31,1.03.07,2.15-.65,2.95-.71.8-1.79,1.18-2.86.99l-9.04-1.62-2.38,9.79,1.85,13.38,15.73,6.84,8.05,3.14h6.29c.37,0,.75.07,1.1.2l10.07,3.83c.73.28,1.33.82,1.67,1.52l5.49,11.06c.31.64.4,1.37.24,2.07l-5.57,24.33c-.29,1.25-1.3,2.19-2.57,2.37l-23.1,3.36c-.65.11-1.33-.02-1.92-.34l-18.67-10.07-7.02,8.27-3.23,13.88,7,18.69c.08.23.14.47.17.72l.8,6.61,6.66,6.84,15.54-4.64,3.51-6.15c.52-.91,1.47-1.5,2.52-1.56l7.5-.41,10.26-2.49c.57-.14,1.18-.11,1.75.09l7.33,2.55c.7.25,1.3.74,1.67,1.39l11.72,20.59c.43.76.52,1.66.25,2.49-.27.83-.88,1.5-1.67,1.86l-13.09,5.89,1.18,12.08,3.52,1.78c.7.36,1.25.97,1.51,1.71l1.56,4.33h8.35c1.54,0,2.85,1.13,3.07,2.66l1.71,11.95,7.74,9.99c.42.54.65,1.21.65,1.9v8l4.53,6.88c.33.5.51,1.1.51,1.7v2.39l4.77,2.53c1.01.54,1.64,1.59,1.64,2.73v16.71l1.78,9.06,2.16,9.21,1.99,3.39,4.1,1.73c.52.22.98.58,1.31,1.05l3.41,4.75,12.49,9.94c.47.37.81.87,1.01,1.43l4.11,12.22,15.56,5.86c.85.32,1.51,1,1.82,1.85l3.18,8.86,12.87-3.16c.52-.13,1.07-.12,1.6.03l13.28,3.83c.83.24,1.52.82,1.91,1.59l5.44,10.9,12.71,5.51c.57.25,1.06.66,1.39,1.19l6.41,10.21,5.27,7.53,9.55,3.08c.76.24,1.39.78,1.77,1.48l3.66,6.8c.69,1.29.39,2.89-.73,3.83l-4.67,3.94-6,9.55-4.47,11.63c-.46,1.19-1.61,1.98-2.89,1.98h-7.24l-1.67,6.21-.96,5.58,6.96,9.13c.29.38.48.82.58,1.28l1.83,9.36c.21,1.1-.18,2.23-1.04,2.96l-20.04,16.98c-1.08.92-2.66.98-3.82.14l-9.96-7.24-7-1.3-9.04,7.91-3.23,9-.44,12.7-1.29,10.03,5.58,11.95c.15.34.25.7.28,1.07l.46,5.95c.02.28,0,.56-.05.83l-1.56,7.94,3.21,3.98c.61.75.83,1.74.6,2.68l-2.12,8.68,1.69,8.25c.1.51.08,1.05-.08,1.56l-2,6.32,2.48,8.23,7.71,2.82.9-7.2c.13-1.02.75-1.91,1.66-2.37l9.15-4.68c1.34-.68,2.95-.31,3.86.87l5.36,6.97,6-2.79c.58-.27,1.22-.34,1.84-.24l8.85,1.56,12.08-4c.86-.29,1.81-.18,2.59.3.78.48,1.31,1.27,1.45,2.17l.94,6.1,8.59-.64c.19-.02.38,0,.58.01l18.06,2.04,7.56-2.73c.37-.14.7-.19,1.17-.18l10.99.42c.66.03,1.3.27,1.82.68l6.86,5.53c.32.26.58.58.78.94l3.21,5.95c.62,1.14.45,2.55-.4,3.52l-2.76,3.13,3.23,6.65c.2.42.31.88.31,1.35v17.41l6.63,6.48,10.34-1.84c.36-.07.73-.07,1.08,0l9.44,1.67,12.2-2.91c1.56-.37,3.13.5,3.65,2l3.66,10.63,3.67,7.14,5.26,4.56,12.69-2.66c.74-.16,1.53-.03,2.2.36l12.36,7.23,11.65,5.39c.76.36,1.35,1,1.62,1.8.27.79.21,1.67-.17,2.41l-4.06,7.95,3.79,11.81c.3.94.14,1.97-.45,2.77-.58.8-1.51,1.27-2.5,1.27h-4.32l1.83,7.66,1.9,17.83-.43,13.28,1.43,7.99,4.1,1.17c.62.17,1.16.53,1.56,1.03l8.69,10.76h9.05c.72,0,1.41.25,1.96.7l7.78,6.38,8.58,9.5h8.24c.88,0,1.72.37,2.3,1.03l6.56,7.31,14.39,8.67,6.53-7.08c.29-.32.66-.57,1.06-.75l5.96-2.55c1.3-.56,2.86-.15,3.71,1.02l5.94,8.09h5.3c.97,0,1.89.46,2.48,1.24l6.03,8.06,9.39-2.79c.92-.27,1.94-.1,2.73.48l6.05,4.49h4.93c.91,0,1.78.4,2.37,1.1.59.7.84,1.62.68,2.52l-1.66,9.62,2.74,5.4,5.03,2.52c1.22.61,1.89,1.94,1.67,3.28l-2.28,13.61-.4,11.2,4.73,10.29,6.91,16.34,5.24,8.03c.18.28.31.58.4.9l4.65,17.85,4.12,5.57,7.36,2.66,9.98,2.3c1.06.24,1.9,1.03,2.24,2.06l2.32,7.2,22.54,10.06c.46.2.86.51,1.17.91l6.41,8.08c.6.76.81,1.75.58,2.68l-1.49,5.87,5.63,8.2c.35.51.54,1.13.54,1.75v8.52l2.09,7.76,6.9,12.81,9.66,8.57c.48.43.82,1,.96,1.63l.87,3.85,10.05-6.22c.82-.51,1.83-.61,2.74-.26l7.78,2.98c.43.16.81.42,1.13.75l10.99,11.48c.76.79,1.04,1.92.75,2.98l-2.89,10.33,5.87,11.69c.22.43.33.91.33,1.39v8.67l12.54,14.83c.19.22.35.47.47.74l4.87,10.68,4.31,5.21c.89,1.07.95,2.61.15,3.75l-5.33,7.62.85,13.81c.03.47-.05.93-.22,1.36l-5.04,12.33c-.1.25-.24.49-.4.7l-5.49,7.23-7.56,7.92-5.86,6.7c-.32.37-.72.65-1.16.83l-7.33,2.98-6.53,3.66c-.75.43-1.64.51-2.47.24l-9.16-2.98-8.96-4.31-5.92,5.79-2.59,22.2,1.55,5.2,8.18,1.38,13.01,3.01c.18.04.36.1.53.18l12.87,5.6c.83.36,1.46,1.07,1.72,1.93.27.86.14,1.8-.34,2.56l-10.08,15.98-10.27,13.03-4.86,7.76,5.91,5.49c.34.32.61.71.78,1.14l5.49,14.04,1.52,7.32c.09.45.08.92-.03,1.36l-1.01,4.04,8.21,10.29c.26.32.45.7.56,1.1l2.99,10.72,8.15,8.36c.63.64.94,1.53.86,2.42l-.91,10.63c-.03.3-.09.6-.21.88l-4.36,10.93v7.48c0,1.04-.52,2.01-1.39,2.59l-10.65,7-3.84,4.36-9.5,7.99c-.77.64-1.78.87-2.76.62l-18.41-4.77-11.24,6.96-16.71,12.6c-.37.28-.79.47-1.25.56l-10.54,2.13c-.77.16-1.57.01-2.24-.4l-19.19-11.88-3.99,7.41.42,8.92c.04.95-.35,1.87-1.07,2.49l-5.2,4.48.77,7.76v6.93s2.53,6.25,2.53,6.25c.34.83.3,1.77-.11,2.57l-3.99,7.83-1.95,6.63,5.97,3.08c1.37.7,2.01,2.3,1.51,3.76l-3.66,10.63c-.1.3-.25.58-.43.83l-5.63,7.65-2.14,7.14c-.07.23-.16.44-.28.65l-3.81,6.68-1.76,15.11c-.07.65-.35,1.26-.8,1.74l-5.08,5.51-2.8,7.41v4.97c0,1.02-.51,1.98-1.35,2.56l-6.08,4.14-1.48,3.79c-.47,1.19-1.61,1.97-2.88,1.97h-2.64l1.6,20.44c.03.34,0,.68-.08,1.01l-2.29,9.36c-.25,1.02-1,1.84-1.99,2.19l-3.74,1.3,1.96,3.28,11.1,2.67c.4.1.78.28,1.12.52l6.87,5.1c.5.37.87.88,1.07,1.46l7.33,20.84c.15.41.2.85.17,1.28l-1.37,16.58c-.07.9-.54,1.72-1.27,2.25l-11.46,8.27-1.88,7.35.42,5.44c.08,1.04-.37,2.05-1.19,2.68l-6.98,5.4.4,9.46,1.79,11.12c.12.74-.03,1.5-.43,2.13l-3.2,5.1-.69,1.64h1.73c.88,0,1.72.38,2.31,1.03.59.66.87,1.53.77,2.41l-.91,8.08-.44,11.68c-.03.78-.36,1.52-.91,2.08l-11.97,11.91-.4,8.16-1.83,25.1c-.09,1.65-1.45,2.93-3.09,2.93Z"/>
</svg>